<svg xmlns="http://www.w3.org/2000/svg" width="232" height="217" viewBox="0 0 232 217" version="1.1"><path d="M 97.757 17.168 C 95.699 17.607, 92.157 19.211, 89.886 20.733 C 87.615 22.255, 84.574 24.175, 83.129 25 C 81.683 25.825, 80.275 26.725, 80 27 C 79.725 27.275, 77.250 27.656, 74.500 27.848 C 71.750 28.039, 69.358 28.576, 69.185 29.041 C 69.012 29.507, 68.151 29.611, 67.271 29.274 C 66.288 28.896, 65.923 29.067, 66.325 29.717 C 66.692 30.311, 66.252 30.714, 65.320 30.637 C 64.298 30.553, 61.695 33.379, 58.541 38 C 54.744 43.563, 52.023 46.339, 48.005 48.750 C 45.026 50.537, 43.019 52.018, 43.544 52.040 C 44.070 52.062, 43.263 52.751, 41.750 53.572 C 40.238 54.393, 38.944 55.500, 38.875 56.032 C 38.628 57.948, 38.460 58.516, 37.849 59.500 C 37.508 60.050, 36.899 62.975, 36.497 66 C 36.095 69.025, 35.161 72.680, 34.423 74.123 C 33.684 75.566, 33.399 77.101, 33.790 77.534 C 34.180 77.966, 33.938 77.997, 33.250 77.601 C 32.469 77.152, 32 77.489, 32 78.500 C 32 79.390, 31.623 79.885, 31.161 79.600 C 29.681 78.685, 26.268 86.354, 26.133 90.898 C 26.061 93.317, 26.479 97.064, 27.061 99.225 C 28.343 103.988, 28.820 111, 27.861 111 C 27.479 111, 26.695 113.197, 26.119 115.882 C 24.803 122.018, 25.715 125.323, 30.845 133.005 C 33.901 137.582, 35.083 140.611, 36.002 146.221 C 36.658 150.225, 37.823 154.492, 38.591 155.705 C 41.135 159.723, 44.286 162.044, 46.320 161.398 C 47.517 161.019, 48.008 161.177, 47.613 161.816 C 46.849 163.053, 52.413 167.253, 53.446 166.220 C 53.842 165.824, 54.048 165.950, 53.903 166.500 C 53.586 167.701, 56.838 173.614, 59.167 176.073 C 60.083 177.041, 60.553 178.114, 60.210 178.456 C 59.868 178.799, 60.575 179.338, 61.782 179.653 C 62.990 179.969, 63.745 180.604, 63.461 181.064 C 63.177 181.523, 63.827 182.372, 64.906 182.950 C 67.467 184.320, 68.291 184.279, 67.393 182.827 C 66.994 182.182, 67.743 182.407, 69.057 183.327 C 70.370 184.247, 72.582 185.020, 73.973 185.044 C 75.363 185.068, 78.300 185.776, 80.500 186.617 C 82.700 187.458, 85.043 188.188, 85.706 188.240 C 86.369 188.291, 86.724 188.637, 86.495 189.008 C 85.993 189.820, 91.631 194.123, 93.570 194.407 C 94.325 194.518, 95.255 194.922, 95.638 195.304 C 96.600 196.266, 105 196.184, 105 195.212 C 105 194.528, 110.461 193.784, 115 193.850 C 121.967 193.952, 125.834 194.459, 125.370 195.210 C 125.061 195.710, 127.396 195.972, 130.658 195.803 C 134.576 195.600, 136.422 195.100, 136.262 194.286 C 136.131 193.618, 136.648 193.311, 137.411 193.604 C 138.174 193.897, 139.138 193.586, 139.553 192.914 C 140.068 192.080, 139.892 191.949, 139 192.500 C 138.127 193.039, 137.932 192.919, 138.415 192.138 C 138.813 191.494, 139.590 191.247, 140.143 191.588 C 140.696 191.930, 142.127 191.375, 143.324 190.355 C 146.366 187.762, 149.692 186, 151.545 186 C 152.410 186, 152.904 185.654, 152.643 185.232 C 152.382 184.809, 153.936 184.632, 156.097 184.838 C 158.597 185.076, 160.932 184.620, 162.513 183.583 C 163.881 182.687, 165 182.268, 165 182.651 C 165 184.130, 170.285 178.323, 172.022 174.937 C 174.091 170.904, 180.546 164.279, 183.239 163.424 C 184.224 163.112, 184.728 162.369, 184.360 161.773 C 183.949 161.109, 184.161 160.981, 184.909 161.443 C 186.398 162.364, 190.207 159.144, 189.322 157.712 C 188.960 157.126, 189.184 156.996, 189.847 157.406 C 190.907 158.060, 193.208 154.055, 192.830 152.215 C 192.749 151.822, 192.918 150.825, 193.205 150 C 194.063 147.536, 196.229 138.592, 196.283 137.293 C 196.311 136.629, 196.962 135.845, 197.730 135.550 C 198.498 135.255, 198.847 134.561, 198.504 134.007 C 198.162 133.453, 198.543 133, 199.352 133 C 200.160 133, 201.815 130.948, 203.029 128.440 C 205.358 123.628, 205.324 120.946, 202.801 110.761 C 201.818 106.790, 201.901 105.156, 203.314 100.673 C 205.698 93.109, 205.512 87.927, 202.750 84.962 C 201.512 83.634, 200.710 82.536, 200.966 82.523 C 201.223 82.511, 200.037 80.025, 198.332 77 C 196.627 73.975, 194.910 69.250, 194.518 66.500 C 194.126 63.750, 193.524 61.050, 193.181 60.500 C 192.837 59.950, 192.465 58.898, 192.354 58.162 C 192.042 56.105, 189.167 53.305, 183.506 49.548 C 180.669 47.665, 177.768 45.426, 177.061 44.573 C 176.353 43.720, 175.380 43.265, 174.898 43.563 C 174.417 43.860, 174.254 43.502, 174.536 42.767 C 174.818 42.031, 174.225 40.546, 173.218 39.465 C 172.212 38.384, 171.243 37.050, 171.067 36.500 C 170.162 33.685, 169.719 33.056, 168.967 33.520 C 168.514 33.800, 167.870 33.167, 167.536 32.114 C 166.912 30.148, 162.657 28.476, 160.954 29.528 C 160.429 29.853, 160 29.647, 160 29.070 C 160 28.494, 158.988 28.074, 157.750 28.136 C 154.412 28.305, 147.487 25.474, 142.534 21.917 C 139.927 20.045, 137.667 19.088, 136.928 19.544 C 136.132 20.036, 135.945 19.897, 136.405 19.155 C 137.080 18.061, 136.695 17.836, 133.750 17.600 C 133.063 17.545, 132.197 17.079, 131.826 16.564 C 131.422 16.003, 130.585 16.100, 129.734 16.806 C 128.954 17.453, 128.065 17.732, 127.759 17.426 C 127.453 17.119, 125.244 17.419, 122.851 18.091 C 116.509 19.872, 115.269 19.868, 108.046 18.033 C 103.570 16.896, 100.317 16.622, 97.757 17.168 M 103.500 33.003 C 93.661 34.486, 77.295 41.482, 70.356 47.171 C 56.247 58.740, 49.349 69.281, 43.358 88.432 C 40.867 96.392, 41.213 116.639, 44 126.009 C 46.551 134.588, 51.592 145.252, 55.690 150.738 C 59.850 156.308, 72.752 169, 74.253 169 C 74.969 169, 76.443 169.622, 77.529 170.383 C 80.829 172.694, 92.141 177.181, 98.500 178.700 C 105.769 180.438, 123.806 180.670, 130 179.105 C 142.689 175.900, 149.552 173.157, 153.400 169.750 C 154.488 168.787, 155.855 167.999, 156.439 167.999 C 157.022 167.998, 158.674 166.986, 160.110 165.749 C 161.545 164.512, 164.802 161.700, 167.346 159.500 C 169.891 157.300, 171.979 154.960, 171.986 154.300 C 171.994 153.640, 172.602 152.740, 173.339 152.300 C 175.122 151.235, 182.484 138.458, 184.510 132.914 C 188.122 123.028, 188.430 121.009, 188.460 107 C 188.490 93.305, 188.310 91.931, 185.203 82.250 C 183.394 76.612, 181.590 72, 181.193 72 C 180.796 72, 179.734 70.313, 178.833 68.250 C 177.307 64.759, 172.206 58.058, 169.187 55.578 C 168.465 54.985, 166.686 53.242, 165.232 51.705 C 162.538 48.855, 151.520 41.372, 147 39.320 C 133.373 33.137, 117.707 30.862, 103.500 33.003 M 106.750 47.662 C 107.438 47.940, 108.563 47.940, 109.250 47.662 C 109.938 47.385, 109.375 47.158, 108 47.158 C 106.625 47.158, 106.063 47.385, 106.750 47.662 M 119.762 47.707 C 121.006 47.946, 122.806 47.937, 123.762 47.687 C 124.718 47.437, 123.700 47.241, 121.500 47.252 C 119.300 47.263, 118.518 47.468, 119.762 47.707 M 107.025 78.125 C 104.564 79.216, 102.288 80.534, 101.967 81.054 C 101.645 81.574, 97.809 82.903, 93.441 84.008 C 82.867 86.683, 75.820 89.274, 75.790 90.500 C 75.768 91.386, 81.933 94.137, 87.500 95.726 C 88.600 96.039, 90.305 97.130, 91.289 98.148 C 92.273 99.167, 93.480 100, 93.973 100 C 95.018 100, 104.918 105.951, 106.756 107.684 C 107.447 108.336, 108.909 109.154, 110.006 109.502 C 111.103 109.850, 112 110.554, 112 111.067 C 112 111.580, 112.563 112.003, 113.250 112.006 C 113.938 112.010, 115.671 112.623, 117.102 113.370 C 119.273 114.503, 120.103 114.508, 122.102 113.400 C 123.421 112.669, 125.287 112.055, 126.250 112.035 C 127.213 112.016, 128 111.618, 128 111.152 C 128 110.685, 129.800 109.492, 132 108.500 C 134.200 107.508, 136 106.507, 136 106.277 C 136 104.775, 123.306 97.356, 116.750 95.027 C 115.237 94.489, 114 93.611, 114 93.076 C 114 92.085, 117.534 93.330, 126.500 97.479 C 138.779 103.161, 143.116 104.239, 144.526 101.958 C 144.880 101.385, 146.951 100.203, 149.127 99.333 C 151.303 98.462, 152.896 97.243, 152.667 96.625 C 152.437 96.006, 151.744 95.612, 151.125 95.750 C 150.506 95.887, 150 95.660, 150 95.244 C 150 94.342, 146.094 92.608, 140.250 90.915 C 137.912 90.238, 136 89.305, 136 88.842 C 136 88.379, 135.325 88, 134.500 88 C 133.675 88, 132.996 87.662, 132.992 87.250 C 132.984 86.510, 128.271 84, 126.888 84 C 126.496 84, 123.054 82.200, 119.238 80 C 115.422 77.800, 112.120 76.032, 111.900 76.071 C 111.680 76.109, 109.486 77.034, 107.025 78.125 M 140 86.393 C 140 86.609, 140.698 87.054, 141.552 87.382 C 142.442 87.723, 142.843 87.555, 142.493 86.989 C 141.906 86.038, 140 85.583, 140 86.393 M 74 97 C 74 98.100, 74.173 99, 74.383 99 C 74.594 99, 75.002 98.100, 75.290 97 C 75.577 95.900, 75.405 95, 74.906 95 C 74.408 95, 74 95.900, 74 97 M 161.252 104.500 C 161.263 106.700, 161.468 107.482, 161.707 106.238 C 161.946 104.994, 161.937 103.194, 161.687 102.238 C 161.437 101.282, 161.241 102.300, 161.252 104.500 M 75.500 106 C 76.495 107.100, 77.535 108, 77.810 108 C 78.085 108, 77.495 107.100, 76.500 106 C 75.505 104.900, 74.465 104, 74.190 104 C 73.915 104, 74.505 104.900, 75.500 106 M 174.272 108 C 174.272 110.475, 174.467 111.487, 174.706 110.250 C 174.944 109.013, 174.944 106.987, 174.706 105.750 C 174.467 104.513, 174.272 105.525, 174.272 108 M 71 106.378 C 71 106.585, 71.787 107.373, 72.750 108.128 C 74.336 109.371, 74.371 109.336, 73.128 107.750 C 71.821 106.084, 71 105.555, 71 106.378 M 142.116 115.250 C 142.052 118.412, 142.349 121, 142.776 121 C 143.203 121, 143.405 119.088, 143.224 116.750 C 142.681 109.745, 142.239 109.147, 142.116 115.250 M 159.564 112.707 C 159.022 114.132, 159.136 114.247, 160.124 113.267 C 160.808 112.588, 161.115 111.781, 160.807 111.474 C 160.499 111.166, 159.940 111.721, 159.564 112.707 M 154.872 113.750 C 153.629 115.336, 153.664 115.371, 155.250 114.128 C 156.213 113.373, 157 112.585, 157 112.378 C 157 111.555, 156.179 112.084, 154.872 113.750 M 82.195 116.500 C 82.215 118.150, 82.439 118.704, 82.693 117.731 C 82.947 116.758, 82.930 115.408, 82.656 114.731 C 82.382 114.054, 82.175 114.850, 82.195 116.500 M 91.500 116 C 92.495 117.100, 93.535 118, 93.810 118 C 94.085 118, 93.495 117.100, 92.500 116 C 91.505 114.900, 90.465 114, 90.190 114 C 89.915 114, 90.505 114.900, 91.500 116 M 112.733 116.124 C 113.412 116.808, 114.219 117.115, 114.526 116.807 C 114.834 116.499, 114.279 115.940, 113.293 115.564 C 111.868 115.022, 111.753 115.136, 112.733 116.124 M 157 116 C 156.099 116.582, 155.975 116.975, 156.691 116.985 C 157.346 116.993, 158.160 116.550, 158.500 116 C 159.267 114.758, 158.921 114.758, 157 116 M 146.252 125.500 C 146.263 127.700, 146.468 128.482, 146.707 127.238 C 146.946 125.994, 146.937 124.194, 146.687 123.238 C 146.437 122.282, 146.241 123.300, 146.252 125.500 M 88 128.500 C 89.866 130.425, 91.617 132, 91.892 132 C 92.167 132, 90.866 130.425, 89 128.500 C 87.134 126.575, 85.383 125, 85.108 125 C 84.833 125, 86.134 126.575, 88 128.500 M 120.100 128.295 C 118.835 130.402, 118.857 130.423, 120.579 128.774 C 121.570 127.824, 122.166 126.832, 121.903 126.569 C 121.640 126.306, 120.829 127.083, 120.100 128.295 M 142.252 135.500 C 142.263 137.700, 142.468 138.482, 142.707 137.238 C 142.946 135.994, 142.937 134.194, 142.687 133.238 C 142.437 132.282, 142.241 133.300, 142.252 135.500 M 116.750 138.706 C 117.987 138.944, 120.013 138.944, 121.250 138.706 C 122.487 138.467, 121.475 138.272, 119 138.272 C 116.525 138.272, 115.513 138.467, 116.750 138.706 M 120.275 144 C 120.192 145.100, 120.451 146, 120.849 146 C 121.248 146, 121.642 145.100, 121.725 144 C 121.808 142.900, 121.549 142, 121.151 142 C 120.752 142, 120.358 142.900, 120.275 144 M 124 145.924 C 124 146.398, 124.675 147.045, 125.500 147.362 C 126.325 147.678, 127 147.549, 127 147.076 C 127 146.602, 126.325 145.955, 125.500 145.638 C 124.675 145.322, 124 145.451, 124 145.924 M 74 149.364 C 74 149.639, 75.350 150.825, 77 152 C 78.650 153.175, 80 153.911, 80 153.636 C 80 153.361, 78.650 152.175, 77 151 C 75.350 149.825, 74 149.089, 74 149.364 M 126.813 164.683 C 127.534 164.972, 128.397 164.936, 128.729 164.604 C 129.061 164.272, 128.471 164.036, 127.417 164.079 C 126.252 164.127, 126.015 164.364, 126.813 164.683" stroke="none" fill="#902245" fill-rule="evenodd"/><path d="M 103.500 33.003 C 93.661 34.486, 77.295 41.482, 70.356 47.171 C 56.247 58.740, 49.349 69.281, 43.358 88.432 C 40.867 96.392, 41.213 116.639, 44 126.009 C 46.551 134.588, 51.592 145.252, 55.690 150.738 C 59.850 156.308, 72.752 169, 74.253 169 C 74.969 169, 76.443 169.622, 77.529 170.383 C 80.829 172.694, 92.141 177.181, 98.500 178.700 C 105.769 180.438, 123.806 180.670, 130 179.105 C 142.689 175.900, 149.552 173.157, 153.400 169.750 C 154.488 168.787, 155.855 167.999, 156.439 167.999 C 157.022 167.998, 158.674 166.986, 160.110 165.749 C 161.545 164.512, 164.802 161.700, 167.346 159.500 C 169.891 157.300, 171.979 154.960, 171.986 154.300 C 171.994 153.640, 172.602 152.740, 173.339 152.300 C 175.122 151.235, 182.484 138.458, 184.510 132.914 C 188.122 123.028, 188.430 121.009, 188.460 107 C 188.490 93.305, 188.310 91.931, 185.203 82.250 C 183.394 76.612, 181.590 72, 181.193 72 C 180.796 72, 179.734 70.313, 178.833 68.250 C 177.307 64.759, 172.206 58.058, 169.187 55.578 C 168.465 54.985, 166.686 53.242, 165.232 51.705 C 162.538 48.855, 151.520 41.372, 147 39.320 C 133.373 33.137, 117.707 30.862, 103.500 33.003 M 100 49.052 C 91.280 51.600, 80.405 57.243, 75.456 61.787 C 70.175 66.635, 63.897 75.350, 61.613 81 C 60.613 83.475, 59.411 86.250, 58.941 87.166 C 57.088 90.784, 55.753 102.749, 56.285 110.963 C 56.899 120.440, 60.803 131.952, 65.922 139.380 C 83.465 164.833, 116.287 173.131, 142.819 158.819 C 149.461 155.236, 149.909 154.884, 157.570 147.217 C 165.075 139.707, 168.051 134.866, 171.612 124.374 C 175.278 113.572, 175.461 99.713, 172.073 89.500 C 169.968 83.154, 166.347 75.273, 164.952 74 C 164.650 73.725, 163.305 71.925, 161.963 70 C 155.299 60.445, 143.717 52.780, 130.029 48.865 C 121.501 46.427, 108.713 46.506, 100 49.052 M 107 75.480 C 105.075 76.237, 95.482 79.460, 85.683 82.643 C 71.073 87.388, 68.154 88.640, 69.466 89.599 C 72.291 91.665, 72.169 96.646, 69.206 100.167 C 66.704 103.140, 66.658 103.378, 68.387 104.409 C 69.394 105.009, 72.307 107.113, 74.859 109.084 C 77.412 111.055, 80.225 112.929, 81.110 113.249 C 82.159 113.627, 82.905 115.463, 83.248 118.508 C 84.188 126.848, 92.913 133.814, 105.856 136.557 C 118.392 139.214, 127.406 138.391, 139.250 133.508 C 141.501 132.579, 141.701 136.173, 139.500 138 C 138.675 138.685, 138 138.910, 138 138.500 C 138 138.090, 137.428 138.230, 136.728 138.811 C 136.029 139.391, 132.448 140.421, 128.772 141.098 C 125.095 141.775, 121.857 142.930, 121.575 143.665 C 121.259 144.489, 121.788 145, 122.960 145 C 124.003 145, 125.503 145.646, 126.293 146.436 C 127.364 147.507, 128.017 147.583, 128.864 146.736 C 129.712 145.888, 130 145.927, 130 146.889 C 130 147.693, 131.062 147.297, 132.822 145.839 C 134.374 144.553, 137.074 142.420, 138.822 141.100 C 141.270 139.252, 142 137.940, 142 135.389 C 142 133.413, 142.774 131.357, 143.919 130.289 C 144.974 129.305, 145.986 126.925, 146.169 125 C 146.466 121.864, 147.113 121.174, 152.403 118.365 C 159.489 114.603, 160.918 112.322, 160.965 104.702 C 160.995 99.742, 160.630 98.562, 158.442 96.534 C 156.134 94.395, 134.516 82.989, 132.784 82.997 C 132.391 82.999, 127.939 80.975, 122.891 78.500 C 112.876 73.589, 112.155 73.452, 107 75.480 M 107.025 78.125 C 104.564 79.216, 102.288 80.534, 101.967 81.054 C 101.645 81.574, 97.809 82.903, 93.441 84.008 C 82.867 86.683, 75.820 89.274, 75.790 90.500 C 75.768 91.386, 81.933 94.137, 87.500 95.726 C 88.600 96.039, 90.305 97.130, 91.289 98.148 C 92.273 99.167, 93.480 100, 93.973 100 C 95.018 100, 104.918 105.951, 106.756 107.684 C 107.447 108.336, 108.909 109.154, 110.006 109.502 C 111.103 109.850, 112 110.554, 112 111.067 C 112 111.580, 112.563 112.003, 113.250 112.006 C 113.938 112.010, 115.671 112.623, 117.102 113.370 C 119.273 114.503, 120.103 114.508, 122.102 113.400 C 123.421 112.669, 125.287 112.055, 126.250 112.035 C 127.213 112.016, 128 111.618, 128 111.152 C 128 110.685, 129.800 109.492, 132 108.500 C 134.200 107.508, 136 106.507, 136 106.277 C 136 104.775, 123.306 97.356, 116.750 95.027 C 115.237 94.489, 114 93.611, 114 93.076 C 114 92.085, 117.534 93.330, 126.500 97.479 C 138.779 103.161, 143.116 104.239, 144.526 101.958 C 144.880 101.385, 146.951 100.203, 149.127 99.333 C 151.303 98.462, 152.896 97.243, 152.667 96.625 C 152.437 96.006, 151.744 95.612, 151.125 95.750 C 150.506 95.887, 150 95.660, 150 95.244 C 150 94.342, 146.094 92.608, 140.250 90.915 C 137.912 90.238, 136 89.305, 136 88.842 C 136 88.379, 135.325 88, 134.500 88 C 133.675 88, 132.996 87.662, 132.992 87.250 C 132.984 86.510, 128.271 84, 126.888 84 C 126.496 84, 123.054 82.200, 119.238 80 C 115.422 77.800, 112.120 76.032, 111.900 76.071 C 111.680 76.109, 109.486 77.034, 107.025 78.125 M 74 97.800 C 74 99.340, 73.478 101.122, 72.840 101.760 C 71.331 103.269, 74.399 105.913, 82.500 110.086 C 85.800 111.786, 89.625 114.207, 91 115.467 C 95.595 119.676, 113.803 129.070, 117.878 129.335 C 121.137 129.547, 123.668 125.116, 122.033 122.061 C 120.941 120.022, 109.398 113.055, 106.904 112.930 C 106.132 112.891, 102.800 111.117, 99.500 108.987 C 93.562 105.156, 75.393 95, 74.475 95 C 74.214 95, 74 96.260, 74 97.800 M 149.846 103.608 C 145.617 105.864, 142.980 107.949, 142.610 109.329 C 141.814 112.297, 141.847 121, 142.654 121 C 144.387 121, 156.111 113.679, 157.458 111.756 C 159.672 108.595, 160.468 103.268, 158.991 101.489 C 157.373 99.539, 157.549 99.498, 149.846 103.608 M 133.500 112.318 C 123.057 118.013, 122.998 118.067, 124.550 120.437 C 125.358 121.669, 125.721 124.032, 125.445 126.256 C 125.190 128.315, 125.225 130, 125.524 130 C 126.717 130, 136.522 124.687, 136.833 123.872 C 137.017 123.393, 137.804 123, 138.583 123 C 139.363 123, 140.022 122.438, 140.050 121.750 C 140.430 112.205, 140.418 109.004, 140 109.023 C 139.725 109.035, 136.800 110.518, 133.500 112.318 M 123.813 194.683 C 124.534 194.972, 125.397 194.936, 125.729 194.604 C 126.061 194.272, 125.471 194.036, 124.417 194.079 C 123.252 194.127, 123.015 194.364, 123.813 194.683" stroke="none" fill="#1e0f13" fill-rule="evenodd"/><path d="M -0 108.504 L -0 217.008 116.250 216.754 L 232.500 216.500 232.754 108.250 L 233.009 0 116.504 0 L 0 0 -0 108.504 M 0.482 109 C 0.482 168.675, 0.603 193.087, 0.750 163.250 C 0.897 133.412, 0.897 84.587, 0.750 54.750 C 0.603 24.912, 0.482 49.325, 0.482 109 M 97.500 17.231 C 95.300 17.697, 91.700 19.410, 89.500 21.036 C 83.836 25.222, 80.154 26.771, 73.192 27.892 C 64.854 29.234, 63.702 30.032, 58.434 38.101 C 55.331 42.854, 52.313 46.101, 49.166 48.070 C 38.867 54.514, 37.818 55.998, 36.494 66 C 35.742 71.675, 34.120 75.738, 31.597 78.260 C 26.111 83.746, 24.769 90.775, 27.351 100.500 C 28.517 104.891, 28.458 106.414, 26.868 113 C 24.695 121.996, 25.201 124.554, 30.826 132.977 C 33.903 137.586, 35.081 140.599, 36 146.221 C 37.287 154.089, 40.015 159.190, 43.992 161.169 C 48.978 163.648, 55.090 169.257, 57.100 173.196 C 61.004 180.849, 64.691 183.514, 73.292 184.902 C 79.293 185.870, 82.039 186.904, 85.745 189.591 C 95.024 196.319, 98.657 197.086, 109.250 194.555 C 114.127 193.389, 115.873 193.389, 120.750 194.555 C 130.824 196.962, 134.816 196.497, 140.568 192.246 C 147.975 186.772, 149.544 186.015, 154.772 185.395 C 163.998 184.301, 168.671 181.470, 172.017 174.947 C 174.303 170.490, 179.439 165.374, 184 163.009 C 189.828 159.988, 191.911 156.943, 193.559 149.037 C 195.420 140.115, 196.955 136.400, 200.395 132.500 C 204.418 127.938, 205.403 123.534, 203.980 116.472 C 203.318 113.187, 202.553 109.280, 202.281 107.790 C 202.008 106.299, 202.508 102.957, 203.392 100.362 C 206.078 92.481, 205.544 88.967, 200.365 80.436 C 197.006 74.904, 195.355 70.833, 194.370 65.651 C 192.749 57.128, 191.316 55.012, 183.467 49.544 C 180.138 47.226, 176.042 43.202, 174.201 40.444 C 167.903 31.005, 166.682 30.035, 159.119 28.458 C 150.280 26.615, 147.315 25.478, 143.238 22.368 C 141.439 20.996, 138.054 19.027, 135.717 17.993 C 131.573 16.160, 131.260 16.159, 123.215 17.952 C 115.359 19.703, 114.642 19.710, 108.232 18.087 C 103.408 16.866, 100.366 16.623, 97.500 17.231 M 105.341 48.061 C 93.557 50.108, 80.895 56.787, 72.794 65.229 C 65.896 72.417, 63.146 76.993, 59.411 87.500 C 56.939 94.453, 56.568 96.939, 56.576 106.500 C 56.585 115.937, 56.969 118.550, 59.283 124.894 C 63.016 135.133, 66.373 140.563, 73.053 147.168 C 87.555 161.510, 105.517 167.964, 122.895 165.078 C 131.155 163.707, 143.489 159.045, 147.066 155.943 C 148.298 154.874, 149.601 154, 149.962 154 C 150.323 154, 152.983 151.721, 155.873 148.936 C 175.665 129.859, 179.749 101.016, 166.087 76.809 C 164.335 73.703, 162.248 70.621, 161.450 69.959 C 160.653 69.297, 160 68.339, 160 67.830 C 160 64.885, 143.923 54.118, 134.500 50.753 C 126.498 47.895, 113.309 46.677, 105.341 48.061 M 90.768 80.409 C 78.816 84.381, 68.695 87.972, 68.277 88.390 C 67.859 88.808, 68.300 89.589, 69.258 90.125 C 72.018 91.669, 71.537 97.554, 68.394 100.697 C 66.369 102.722, 66.090 103.475, 67.144 104.078 C 67.890 104.505, 70.944 106.687, 73.931 108.927 C 76.917 111.167, 79.897 113, 80.552 113 C 81.221 113, 82.026 115.135, 82.390 117.880 C 82.885 121.610, 83.967 123.817, 86.981 127.241 C 91.750 132.659, 97.477 135.275, 109.497 137.528 C 119.602 139.421, 128.623 138.588, 136.703 135.013 C 139.066 133.968, 141 133.500, 141 133.974 C 141 136.177, 139.620 138, 137.952 138 C 136.943 138, 135.859 138.418, 135.543 138.930 C 135.227 139.441, 131.693 140.388, 127.689 141.034 C 121.643 142.009, 120.385 142.538, 120.263 144.153 C 120.148 145.685, 120.555 145.959, 122.184 145.442 C 123.566 145.003, 124.024 145.153, 123.566 145.893 C 122.881 147.001, 124.714 147.478, 128.382 147.147 C 130.033 146.998, 130.094 147.186, 128.882 148.682 C 128.122 149.621, 129.903 148.501, 132.840 146.194 C 135.777 143.887, 138.616 142, 139.149 142 C 139.682 142, 139.860 141.582, 139.544 141.072 C 139.229 140.562, 139.877 139.856, 140.985 139.505 C 142.554 139.007, 143 137.996, 143 134.941 C 143 132.100, 143.552 130.672, 145 129.768 C 146.395 128.897, 147 127.436, 147 124.937 C 147 121.708, 147.430 121.140, 151.360 119.177 C 153.757 117.980, 156.181 117, 156.745 117 C 159.114 117, 161.328 111.486, 161.413 105.372 C 161.486 100.175, 161.120 98.767, 159.156 96.671 C 157.243 94.630, 135.466 83, 133.559 83 C 133.260 83, 128.465 80.750, 122.902 78 C 117.340 75.250, 112.724 73.042, 112.645 73.094 C 112.565 73.146, 102.721 76.438, 90.768 80.409 M 73.911 99.463 C 72.330 102.842, 72.339 102.875, 75.411 105.171 C 77.110 106.442, 80.525 108.544, 83 109.844 C 85.475 111.143, 89.075 113.421, 91 114.905 C 96.878 119.436, 109.953 126.742, 115.886 128.811 C 118.711 129.795, 119.175 129.662, 120.619 127.458 C 123.799 122.605, 121.998 120.417, 110.220 114.827 C 104.324 112.028, 97.700 108.526, 95.500 107.045 C 92.125 104.773, 76.208 95.932, 75.673 96.033 C 75.578 96.050, 74.785 97.594, 73.911 99.463 M 149.250 104.274 L 143 107.427 143 113.714 C 143 117.171, 143.338 119.996, 143.750 119.991 C 144.659 119.979, 153.775 114.630, 156.340 112.603 C 158.260 111.084, 160.463 103.558, 159.460 101.936 C 158.487 100.360, 155.776 100.981, 149.250 104.274 M 132 113.538 C 127.270 116.258, 124.678 118.341, 124.981 119.176 C 125.246 119.904, 125.469 122.588, 125.477 125.141 L 125.491 129.781 130.995 126.916 C 139.974 122.242, 140.142 122.020, 139.800 115.215 L 139.500 109.224 132 113.538" stroke="none" fill="#f9f8f9" fill-rule="evenodd"/></svg>