<svg xmlns="http://www.w3.org/2000/svg" width="181" height="180" viewBox="0 0 181 180" version="1.1"><path d="M 180.479 90 C 180.479 139.775, 180.601 160.138, 180.750 135.250 C 180.899 110.363, 180.899 69.638, 180.750 44.750 C 180.601 19.863, 180.479 40.225, 180.479 90 M 48.200 50.200 C 46.477 51.923, 46.477 128.077, 48.200 129.800 C 49.924 131.524, 130.076 131.524, 131.800 129.800 C 133.523 128.077, 133.523 51.923, 131.800 50.200 C 130.076 48.476, 49.924 48.476, 48.200 50.200 M 63.671 67.251 C 62.131 68.378, 61.987 70.703, 62.230 90.501 L 62.500 112.500 65.815 112.818 C 71.876 113.400, 72 112.945, 72 90.033 C 72 71.227, 71.831 69.157, 70.171 67.655 C 67.987 65.679, 65.991 65.555, 63.671 67.251 M 78.655 68.829 C 74.783 73.107, 77.968 76, 86.549 76 L 92.955 76 93.227 94.250 L 93.500 112.500 96.815 112.818 C 102.760 113.389, 103 112.634, 103 93.378 L 103 76 108.566 76 C 115.339 76, 118 74.731, 118 71.500 C 118 70.121, 117.163 68.623, 116.066 68.035 C 114.951 67.439, 106.965 67, 97.221 67 C 82.108 67, 80.134 67.194, 78.655 68.829" stroke="none" fill="#f8f8fa" fill-rule="evenodd"/><path d="M 0 90 L 0 180 90 180 L 180 180 180 90 L 180 0 90 0 L 0 0 0 90 M 48.200 50.200 C 46.477 51.923, 46.477 128.077, 48.200 129.800 C 49.924 131.524, 130.076 131.524, 131.800 129.800 C 133.523 128.077, 133.523 51.923, 131.800 50.200 C 130.076 48.476, 49.924 48.476, 48.200 50.200 M 63.671 67.251 C 62.131 68.378, 61.987 70.703, 62.230 90.501 L 62.500 112.500 65.815 112.818 C 71.876 113.400, 72 112.945, 72 90.033 C 72 71.227, 71.831 69.157, 70.171 67.655 C 67.987 65.679, 65.991 65.555, 63.671 67.251 M 78.655 68.829 C 74.783 73.107, 77.968 76, 86.549 76 L 92.955 76 93.227 94.250 L 93.500 112.500 96.815 112.818 C 102.760 113.389, 103 112.634, 103 93.378 L 103 76 108.566 76 C 115.339 76, 118 74.731, 118 71.500 C 118 70.121, 117.163 68.623, 116.066 68.035 C 114.951 67.439, 106.965 67, 97.221 67 C 82.108 67, 80.134 67.194, 78.655 68.829" stroke="none" fill="#1c64a4" fill-rule="evenodd"/></svg>