<svg xmlns="http://www.w3.org/2000/svg" width="100" height="100" viewBox="0 0 100 100" version="1.1"><path d="M 21.655 35.829 C 20.294 37.333, 20 39.962, 20 50.629 C 20 59.384, 20.390 63.990, 21.200 64.800 C 22.662 66.262, 39.699 66.445, 43.399 65.038 C 45.019 64.422, 46.143 64.422, 46.524 65.038 C 47.577 66.742, 51.941 66.067, 53.232 64 C 54.312 62.270, 55.564 62, 62.500 62 C 69.516 62, 70.680 62.258, 71.807 64.062 C 73.359 66.547, 77.752 66.372, 79.387 63.761 C 81.051 61.103, 68.029 35.296, 64.588 34.433 C 60.133 33.315, 58.309 34.833, 53.949 43.288 C 48.818 53.238, 49.273 52.702, 47.481 50.909 C 46.267 49.696, 46.220 48.879, 47.210 46.255 C 48.894 41.794, 47.342 37.933, 42.989 35.752 C 37.942 33.223, 23.968 33.273, 21.655 35.829" stroke="none" fill="#423f2f" fill-rule="evenodd"/><path d="M 0 50.009 L 0 100.018 50.250 99.759 L 100.500 99.500 100.759 49.750 L 101.019 -0 50.509 -0 L 0 0 0 50.009 M 0.464 50.500 C 0.464 78, 0.592 89.106, 0.749 75.180 C 0.906 61.255, 0.906 38.755, 0.749 25.180 C 0.592 11.606, 0.464 23, 0.464 50.500 M 21.655 35.829 C 20.294 37.333, 20 39.962, 20 50.629 C 20 59.384, 20.390 63.990, 21.200 64.800 C 22.662 66.262, 39.699 66.445, 43.399 65.038 C 45.019 64.422, 46.143 64.422, 46.524 65.038 C 47.577 66.742, 51.941 66.067, 53.232 64 C 54.312 62.270, 55.564 62, 62.500 62 C 69.516 62, 70.680 62.258, 71.807 64.062 C 73.359 66.547, 77.752 66.372, 79.387 63.761 C 81.051 61.103, 68.029 35.296, 64.588 34.433 C 60.133 33.315, 58.309 34.833, 53.949 43.288 C 48.818 53.238, 49.273 52.702, 47.481 50.909 C 46.267 49.696, 46.220 48.879, 47.210 46.255 C 48.894 41.794, 47.342 37.933, 42.989 35.752 C 37.942 33.223, 23.968 33.273, 21.655 35.829" stroke="none" fill="#fbd305" fill-rule="evenodd"/></svg>