<svg xmlns="http://www.w3.org/2000/svg" width="512" height="512" viewBox="0 0 512 512" version="1.1"><path d="M 0 256.002 L 0 512.004 256.250 511.752 L 512.500 511.500 512.752 255.750 L 513.004 0 256.502 0 L 0 0 0 256.002 M 0.492 256.500 C 0.492 397.300, 0.608 454.751, 0.750 384.170 C 0.892 313.588, 0.892 198.388, 0.750 128.170 C 0.608 57.951, 0.492 115.700, 0.492 256.500 M 109.464 57.082 C 96.334 58.713, 85.715 64.220, 76.496 74.178 C 48.874 104.013, 62.462 151.670, 101.932 163.388 C 108.868 165.447, 122.751 165.476, 130.535 163.449 C 142.847 160.242, 156.306 150.206, 162.491 139.620 C 172.544 122.414, 173.341 104.466, 164.828 87 C 154.626 66.072, 132.657 54.200, 109.464 57.082 M 343.636 185.096 C 319.308 187.663, 298.454 198.301, 286 214.497 L 281.500 220.350 281 208.425 C 280.440 195.082, 279.356 192.346, 273.540 189.586 C 270.707 188.242, 265.369 188, 238.500 188 C 203.412 188, 202.124 188.202, 198.456 194.266 C 196.542 197.430, 196.500 200.201, 196.500 322.044 C 196.500 439.348, 196.603 446.744, 198.264 449.280 C 202.355 455.524, 202.197 455.500, 238.500 455.500 C 274.802 455.500, 274.643 455.524, 278.736 449.281 C 280.367 446.793, 280.540 441.158, 281.034 374.545 C 281.561 303.530, 281.601 302.395, 283.810 295.171 C 291.718 269.309, 305.946 256.978, 327.839 257.012 C 349.936 257.046, 362.746 267.507, 369.271 290.846 C 371.353 298.293, 371.420 300.505, 371.764 372.478 C 372.102 443.164, 372.203 446.592, 374.025 449.540 C 377.677 455.449, 378.032 455.500, 415.402 455.500 C 447.242 455.500, 449.685 455.374, 452.301 453.602 C 458.218 449.591, 458 452.671, 458 373.195 C 458 332.891, 457.545 294.524, 456.983 287.395 C 453.154 238.850, 437.006 208.372, 407.500 194 C 389.892 185.423, 368.630 182.459, 343.636 185.096 M 81.241 189.995 C 79.448 191.088, 77.088 193.448, 75.995 195.241 C 74.040 198.446, 74.007 200.528, 74.005 321.500 C 74.003 436.630, 74.115 444.719, 75.752 447.929 C 76.713 449.815, 78.770 452.290, 80.323 453.429 C 83.042 455.424, 84.347 455.500, 115.823 455.500 C 146.071 455.500, 148.732 455.360, 151.614 453.614 C 158.488 449.453, 158 459.521, 157.996 321.846 C 157.993 198.891, 157.970 197.463, 155.974 194.190 C 152.375 188.287, 150.511 188, 115.782 188.004 C 86.331 188.007, 84.309 188.124, 81.241 189.995" stroke="none" fill="#0474b4" fill-rule="evenodd"/><path d="M 103.109 58.581 C 91.461 61.714, 80.488 68.885, 73.753 77.768 C 56.879 100.023, 58.862 129.715, 78.525 149.222 C 99.572 170.102, 132.878 170.079, 153.873 149.170 C 171.126 131.989, 174.957 107.705, 163.876 85.755 C 159.910 77.897, 149.555 67.525, 141.407 63.248 C 130.069 57.297, 114.803 55.437, 103.109 58.581 M 336.466 186.454 C 312.577 191.006, 297.885 199.938, 282.804 219.078 L 280.107 222.500 280.054 209.283 L 280 196.067 276.467 192.533 L 272.933 189 238.931 189 C 209.030 189, 204.626 189.199, 202.414 190.648 C 196.705 194.389, 197 187.232, 197 322.046 C 197 435.175, 197.145 446.437, 198.636 448.960 C 202.156 454.920, 202.688 455, 238.536 455 C 269.628 455, 271.427 454.899, 274.533 452.980 C 276.331 451.869, 278.184 450.181, 278.651 449.230 C 279.118 448.278, 279.740 415.550, 280.034 376.500 C 280.555 307.179, 280.620 305.311, 282.778 297.500 C 291.043 267.585, 309.527 253.158, 334.776 256.913 C 349.806 259.149, 359.437 266.170, 365.513 279.322 C 371.838 293.013, 372 295.374, 372 373.643 C 372 451.258, 371.831 449.098, 378.190 452.974 C 381.336 454.893, 383.160 454.993, 415 454.993 C 446.466 454.993, 448.694 454.874, 451.701 453.040 C 458.520 448.883, 458.212 453.294, 457.754 366.639 C 457.308 282.324, 456.952 275.930, 451.504 254.426 C 442.408 218.527, 421.530 195.950, 390 187.915 C 379.208 185.164, 347.739 184.306, 336.466 186.454 M 80.763 190.565 C 74.662 193.876, 75 186.130, 75 322.465 L 75 447.029 78.422 450.765 L 81.844 454.500 115.172 454.768 C 147.217 455.025, 148.627 454.957, 151.810 452.996 C 158.351 448.965, 158 456.431, 158 321.482 C 158 187.804, 158.343 195.775, 152.385 191.088 C 149.812 189.064, 148.714 189.001, 116.615 189.040 C 89.276 189.073, 83.023 189.339, 80.763 190.565" stroke="none" fill="#fcfcfc" fill-rule="evenodd"/></svg>