<svg xmlns="http://www.w3.org/2000/svg" width="1080" height="1080" viewBox="0 0 1080 1080" version="1.1"><path d="M 200.112 432.545 C 183.445 436.161, 168.310 444.515, 155.953 456.920 C 142.398 470.528, 135.094 483.968, 131.431 502.043 C 129.173 513.190, 129.894 533.347, 132.927 543.821 C 138.354 562.564, 151.673 581.157, 167.363 591.890 C 173.079 595.800, 185.051 602.282, 185.580 601.753 C 185.819 601.514, 182.299 599.034, 177.757 596.243 C 152.483 580.707, 136.975 555.205, 135.304 526.430 C 134.601 514.332, 135.511 506.349, 137.413 507.928 C 138.112 508.508, 138.978 508.689, 139.338 508.329 C 139.697 507.970, 140.481 509.080, 141.079 510.797 C 141.689 512.547, 143.119 514.202, 144.334 514.564 C 147.111 515.393, 159 523.143, 159 524.125 C 159 524.535, 158.544 526.068, 157.988 527.532 C 156.632 531.099, 158.266 536.973, 161.776 541.149 C 164.470 544.354, 164.496 544.528, 164.179 556.945 C 163.865 569.253, 164.722 574.592, 167.265 576.164 C 169.071 577.280, 170.059 576.082, 169.423 573.548 C 169.101 572.267, 169.326 570.917, 169.923 570.548 C 170.519 570.179, 170.737 568.799, 170.406 567.481 C 169.960 565.703, 170.474 564.465, 172.402 562.678 C 173.831 561.354, 175 559.782, 175 559.185 C 175 558.588, 175.614 557.740, 176.365 557.300 C 177.115 556.860, 178.489 555.014, 179.418 553.197 C 180.346 551.380, 181.982 549.018, 183.053 547.947 C 184.124 546.876, 184.999 545.212, 184.997 544.250 C 184.996 543.288, 185.971 540.657, 187.164 538.405 C 188.357 536.152, 189.068 533.619, 188.744 532.775 C 188.420 531.931, 186.087 530.536, 183.559 529.675 C 181.017 528.809, 177.801 526.729, 176.364 525.021 C 173.827 522.006, 166.943 518, 164.299 518 C 163.569 518, 162.139 518.521, 161.119 519.158 C 158.862 520.567, 156 519.638, 156 517.496 C 156 516.635, 155.253 514.790, 154.340 513.397 C 153.074 511.464, 152.120 511.004, 150.318 511.456 C 147.458 512.174, 146.341 510.101, 147.958 507.078 C 148.797 505.510, 150.044 505, 153.035 505 C 155.216 505, 157 505.450, 157 506 C 157 506.550, 157.450 507, 158 507 C 158.550 507, 159 505.945, 159 504.655 C 159 503.365, 159.900 501.495, 161 500.500 C 162.100 499.505, 163 498.286, 163 497.792 C 163 496.010, 168.538 490, 170.180 490 C 171.162 490, 171.994 489.064, 172.180 487.750 C 172.356 486.512, 172.838 485.613, 173.250 485.750 C 173.662 485.887, 173.962 486.287, 173.915 486.638 C 173.815 487.381, 176.117 488.962, 177.329 488.985 C 178.529 489.007, 177.074 483.203, 174.773 478.790 C 173.687 476.705, 172.169 475, 171.399 475 C 170.630 475, 170 474.622, 170 474.161 C 170 473.434, 165.729 471, 164.453 471 C 164.204 471, 164 472.155, 164 473.566 C 164 474.977, 163.533 477.005, 162.962 478.072 C 162.005 479.859, 161.699 479.896, 159.083 478.543 C 157.521 477.735, 155.995 476.430, 155.693 475.643 C 155.002 473.842, 159.021 470.082, 160.909 470.764 C 161.866 471.109, 162.126 470.771, 161.719 469.710 C 161.389 468.850, 161.767 467.608, 162.559 466.951 C 163.352 466.293, 164 465.135, 164 464.378 C 164 462.702, 166.172 462.572, 167.753 464.153 C 168.593 464.993, 168.613 465.856, 167.827 467.324 C 166.962 468.940, 167.112 469.609, 168.583 470.684 C 170.948 472.414, 171.790 472.077, 173.829 468.588 C 175.096 466.420, 175.198 465.621, 174.250 465.281 C 173.563 465.035, 173 464.212, 173 463.452 C 173 461.968, 170.307 460.157, 165.518 458.417 L 162.535 457.333 165.201 456.664 C 166.667 456.296, 168.152 455.096, 168.501 453.998 C 168.849 452.899, 169.632 452, 170.239 452 C 170.846 452, 172.165 451.255, 173.171 450.345 C 174.319 449.307, 175 449.132, 175 449.876 C 175 450.529, 174.375 451.303, 173.611 451.596 C 171.319 452.475, 172.914 456, 175.603 456 C 177.390 456, 178.353 456.909, 179.517 459.694 C 180.365 461.726, 180.973 464.088, 180.867 464.944 C 180.761 465.800, 181.022 468.188, 181.448 470.250 C 182.071 473.267, 182.671 474, 184.513 474 C 186.160 474, 187.099 473.156, 187.850 471 C 188.425 469.350, 189.577 468, 190.410 468 C 191.242 468, 193.910 466.069, 196.338 463.709 C 199.620 460.519, 200.934 458.352, 201.455 455.266 C 201.841 452.983, 202.796 450.584, 203.578 449.935 C 205.430 448.398, 205.393 447, 203.500 447 C 202.675 447, 202 446.325, 202 445.500 C 202 443.507, 190.527 443.420, 186.404 445.381 C 184.807 446.141, 182.057 447.026, 180.294 447.347 C 174.439 448.416, 177.735 444.994, 186.534 440.871 C 198.703 435.168, 210.040 432.711, 224.712 432.596 C 231.429 432.543, 236.154 432.194, 235.212 431.820 C 232.112 430.590, 206.708 431.114, 200.112 432.545 M 218.543 447.930 C 217.859 449.038, 222.710 450.624, 223.713 449.620 C 224.506 448.827, 224.015 448.407, 221.334 447.584 C 220.143 447.218, 218.887 447.374, 218.543 447.930 M 213.750 448.750 C 211.609 449.235, 211.441 451.848, 213.500 452.638 C 214.325 452.955, 215 453.878, 215 454.690 C 215 455.515, 215.551 455.910, 216.250 455.584 C 216.938 455.263, 218.287 454.724, 219.250 454.384 C 221.201 453.696, 221.662 451, 219.829 451 C 219.185 451, 217.947 450.404, 217.079 449.676 C 216.210 448.948, 214.713 448.531, 213.750 448.750 M 595 450.576 C 585.663 453.028, 575.950 458.422, 569.825 464.557 C 563.311 471.082, 559.180 478.302, 555.841 489 C 553.709 495.831, 553.503 498.284, 553.529 516.500 C 553.553 532.582, 553.910 537.773, 555.352 543 C 561.542 565.435, 575.113 579.373, 594.837 583.553 C 611.686 587.124, 626.045 583.896, 637.249 574.018 C 642.451 569.432, 642.449 569.431, 643.744 577.500 L 644.546 582.500 652.023 582.500 L 659.500 582.500 659.500 546.500 L 659.500 510.500 632.715 510.234 L 605.930 509.967 606.215 520.062 L 606.500 530.158 621.500 530.329 L 636.500 530.500 636.221 536.473 C 635.687 547.919, 628.410 558.375, 618.742 561.586 C 611.118 564.118, 600.716 563.162, 593.884 559.303 C 587.664 555.789, 582.708 549.243, 580.490 541.612 C 577.039 529.743, 576.791 505.859, 579.994 494.006 C 582.523 484.646, 587.722 477.806, 595.447 473.670 C 598.831 471.858, 601.151 471.500, 609.500 471.500 C 618.551 471.500, 619.934 471.755, 624.070 474.187 C 628.911 477.033, 633.606 482.875, 634.876 487.634 L 635.641 490.500 647.961 490.782 L 660.281 491.064 659.638 486.282 C 657.455 470.022, 642.842 455.580, 623.467 450.533 C 616.175 448.634, 602.315 448.655, 595 450.576 M 728 516.500 L 728 584.066 739.250 583.783 L 750.500 583.500 750.500 516.500 L 750.500 449.500 739.250 449.217 L 728 448.934 728 516.500 M 679.001 460.750 L 679.002 471.500 690.751 471.386 L 702.500 471.272 702.784 460.636 L 703.068 450 691.034 450 L 679 450 679.001 460.750 M 261 454.897 C 258.525 455.778, 255.741 457.323, 254.813 458.330 C 253.836 459.390, 252.107 460.026, 250.702 459.842 C 249.369 459.667, 247.653 460.019, 246.889 460.624 C 246.125 461.229, 244.262 462.020, 242.750 462.381 C 238.804 463.324, 239.069 460.277, 243.241 456.728 L 246.500 453.956 243.500 454.612 C 241.850 454.973, 239.713 455.953, 238.750 456.789 C 236.718 458.555, 236.437 461.632, 238.250 462.280 C 240.366 463.036, 238.257 464.258, 234.280 464.580 C 231.871 464.775, 229.301 464.181, 227.193 462.943 C 222.224 460.024, 220.427 460.508, 214.917 466.250 C 209.827 471.555, 209.327 473.265, 211.436 478.173 C 211.926 479.314, 211.518 480.188, 210.153 480.918 C 208.389 481.862, 208.015 481.575, 206.998 478.495 C 205.295 473.335, 203.383 473.943, 203.982 479.453 C 204.158 481.071, 203.940 481.195, 202.714 480.178 C 201.523 479.189, 201.119 479.247, 200.648 480.474 C 200.287 481.415, 200.626 482, 201.531 482 C 202.339 482, 203 482.675, 203 483.500 C 203 484.325, 203.505 485, 204.122 485 C 204.898 485, 204.860 485.464, 204 486.500 C 203.140 487.536, 203.102 488, 203.878 488 C 204.495 488, 205 488.675, 205 489.500 C 205 490.333, 204.111 491, 203 491 C 201.457 491, 201 491.667, 201 493.917 C 201 495.521, 201.458 496.986, 202.017 497.172 C 203.067 497.522, 200.927 502.418, 197.734 506.973 C 195.223 510.553, 195.402 518.970, 198.061 522.350 C 199.881 524.664, 200.747 524.943, 205.477 524.735 C 208.422 524.606, 211.166 524.833, 211.573 525.240 C 212.553 526.220, 214.051 534.251, 214.419 540.500 C 214.581 543.250, 215.565 547.975, 216.607 551 C 218.726 557.157, 221.564 558.609, 225.144 555.369 C 228.276 552.536, 234 540.032, 234 536.026 C 234 533.615, 235.160 530.633, 237.524 526.966 C 241.435 520.898, 241.656 518.331, 238.225 518.813 C 237.001 518.985, 236 518.647, 236 518.063 C 236 517.478, 237.160 517, 238.577 517 C 241.346 517, 247.533 511.672, 246.572 510.116 C 246.264 509.617, 246.571 508.997, 247.256 508.736 C 249.978 507.701, 252.646 510.029, 255.442 515.878 C 257.351 519.872, 258.966 522, 260.090 522 C 261.301 522, 261.662 521.425, 261.307 520.064 C 260.650 517.554, 265.607 510.912, 267.573 511.667 C 268.358 511.968, 269 512.693, 269 513.278 C 269 513.864, 269.719 515.137, 270.598 516.108 C 271.477 517.080, 272.301 519.365, 272.429 521.187 C 272.691 524.915, 275.541 531, 277.026 531 C 278.484 531, 278.200 529.411, 276.488 527.990 C 275.327 527.026, 275.242 526.413, 276.126 525.349 C 277.014 524.278, 276.867 523.510, 275.477 521.975 C 273.471 519.758, 274.168 518.064, 276.343 519.870 C 278.152 521.371, 279.739 519.556, 280.665 514.927 C 281.448 511.012, 285.006 507.499, 286.323 509.341 C 286.778 509.978, 286.943 507.457, 286.690 503.738 C 286.254 497.355, 287.099 494.210, 288.364 497.506 C 289.274 499.878, 290.905 499.246, 291.600 496.250 C 291.951 494.738, 292.849 492.519, 293.597 491.319 C 294.756 489.458, 294.723 488.578, 293.367 485.319 C 288.163 472.804, 273.793 454.945, 268 453.791 C 266.625 453.517, 263.475 454.015, 261 454.897 M 367.024 454.548 C 352.755 458.526, 342.943 468.256, 339.449 481.892 C 336.443 493.626, 339.720 506.700, 347.611 514.456 C 352.746 519.503, 363.207 524.407, 375.481 527.520 C 404.430 534.864, 410.500 538.587, 410.500 549 C 410.500 558.428, 402.970 564.098, 389.510 564.804 C 376.625 565.480, 364.494 561.514, 353.122 552.907 C 350.283 550.758, 347.617 549, 347.199 549 C 346.121 549, 334 563.568, 334 564.864 C 334 566.391, 343.540 573.239, 350.554 576.747 C 359.790 581.366, 368.183 583.902, 378.589 585.216 C 386.652 586.234, 389.575 586.179, 397.321 584.860 C 420.572 580.902, 433.093 567.929, 433.378 547.500 C 433.668 526.700, 423.088 516.738, 391.984 508.525 C 374.367 503.874, 368.652 501.507, 365.003 497.350 C 362.433 494.423, 362 493.126, 362 488.348 C 362 483.224, 362.310 482.455, 365.773 478.992 C 367.873 476.892, 371.308 474.730, 373.523 474.115 C 384.653 471.025, 400.228 474.556, 412.397 482.929 C 414.852 484.618, 417.079 486, 417.347 486 C 418.579 486, 429.094 469.688, 428.634 468.489 C 427.694 466.039, 416.656 459.696, 408 456.632 C 400.435 453.954, 398.015 453.590, 386 453.323 C 376.170 453.103, 371.011 453.437, 367.024 454.548 M 459.591 459.852 C 459.301 460.321, 459.150 466.284, 459.255 473.102 L 459.445 485.500 453.187 485.799 L 446.929 486.097 447.214 495.799 L 447.500 505.500 452.785 505.618 C 455.692 505.683, 458.265 505.931, 458.503 506.169 C 458.741 506.407, 459.102 519.854, 459.306 536.051 C 459.580 557.812, 460.040 566.544, 461.068 569.500 C 463.018 575.105, 470.699 582.554, 476.132 584.110 C 482.986 586.071, 495.521 585.547, 502.250 583.018 L 508 580.856 508 572.095 C 508 567.276, 507.738 563.072, 507.418 562.752 C 507.099 562.432, 505.313 562.807, 503.451 563.585 C 499.018 565.437, 490.657 565.391, 486.989 563.494 C 482.402 561.122, 481.866 557.378, 482.201 530.062 L 482.500 505.624 494.699 505.562 C 502.107 505.524, 507.328 505.071, 507.992 504.407 C 508.661 503.739, 508.972 500.049, 508.793 494.907 L 508.500 486.500 495.250 486.221 L 482 485.942 482 472.471 L 482 459 471.059 459 C 465.041 459, 459.881 459.384, 459.591 459.852 M 199.159 467.604 C 199.611 469.976, 204 470.851, 204 468.570 C 204 467.706, 203.587 467, 203.082 467 C 202.577 467, 201.406 466.709, 200.480 466.354 C 199.212 465.867, 198.886 466.175, 199.159 467.604 M 807 485.098 C 794.960 487.449, 781.727 497.654, 775.996 509.008 C 767.626 525.590, 767.875 546.789, 776.624 562.443 C 791.158 588.446, 831.838 594.134, 854.133 573.279 C 856.810 570.775, 859 568.305, 859 567.790 C 859 566.920, 848.576 556.837, 847.048 556.227 C 846.672 556.077, 845.045 557.132, 843.432 558.570 C 841.819 560.009, 837.800 562.494, 834.500 564.092 C 829.394 566.565, 827.308 566.996, 820.500 566.982 C 813.788 566.969, 811.631 566.527, 807.101 564.233 C 800.621 560.953, 796.353 555.950, 793.930 548.795 L 792.138 543.500 828.069 543.238 L 864 542.975 863.983 535.738 C 863.899 500.813, 839.150 478.819, 807 485.098 M 908.874 485.106 C 896.094 486.169, 886.116 492.166, 881.437 501.597 C 879.946 504.601, 879.500 507.610, 879.500 514.664 C 879.500 523.247, 879.692 524.103, 882.532 528.164 C 887.137 534.752, 893.239 538.213, 909.451 543.434 C 925.992 548.760, 931 551.960, 931 557.204 C 931 561.885, 925.690 566.580, 919.420 567.442 C 910.951 568.607, 893.361 563.140, 886.813 557.307 C 884.540 555.282, 883.555 556.080, 878.309 564.190 C 874.026 570.809, 873.900 571.211, 875.656 572.590 C 878.939 575.168, 895.371 582.754, 900 583.828 C 922.360 589.018, 941.205 583.116, 948.900 568.515 C 950.587 565.313, 951 562.742, 951 555.436 C 951 546.977, 950.788 546.023, 947.956 541.748 C 943.671 535.278, 936.973 531.396, 919.682 525.357 C 902.960 519.517, 899.632 517.253, 899.785 511.823 C 899.853 509.417, 900.763 507.710, 903.084 505.635 C 906.191 502.857, 906.555 502.783, 914.895 503.209 C 923.311 503.638, 924.331 503.944, 939.605 510.620 C 941.003 511.231, 949.343 497.336, 948.655 495.543 C 948.058 493.986, 937.118 488.642, 931.433 487.129 C 923.983 485.146, 916.480 484.474, 908.874 485.106 M 680 535 L 680 584.066 691.250 583.783 L 702.500 583.500 702.500 535 L 702.500 486.500 691.250 486.217 L 680 485.934 680 535 M 207.578 495.137 L 205.725 498.274 209.442 497.577 C 212.625 496.980, 213.495 497.243, 215.499 499.405 C 217.366 501.419, 218.746 501.912, 222.313 501.840 C 229.645 501.693, 231.683 499.274, 224.936 498.727 C 222.610 498.539, 221.190 497.760, 220.444 496.263 C 219.423 494.216, 219.245 494.183, 217.677 495.752 C 216.108 497.321, 216 497.318, 216 495.714 C 216 494.667, 215.222 494, 214 494 C 212.900 494, 212 493.550, 212 493 C 212 490.867, 209.342 492.151, 207.578 495.137 M 293.861 498.914 C 292.562 499.967, 291.799 501.128, 292.164 501.495 C 293.181 502.516, 297 500.123, 297 498.465 C 297 496.571, 296.697 496.615, 293.861 498.914 M 807.500 504.879 C 805.300 505.888, 802.196 508.016, 800.601 509.607 C 797.673 512.530, 793.749 520.193, 792.591 525.250 L 791.962 528 816.956 528 L 841.950 528 841.352 524.750 C 839.732 515.950, 834.454 508.366, 827.661 505.078 C 822.162 502.416, 813.065 502.326, 807.500 504.879 M 156 510.076 C 156 510.584, 156.800 511, 157.777 511 C 158.755 511, 160.556 511.701, 161.779 512.558 C 164.310 514.331, 166.741 513.598, 165.057 511.569 C 164.485 510.880, 164.202 510.131, 164.428 509.905 C 164.654 509.680, 162.850 509.418, 160.419 509.324 C 157.989 509.230, 156 509.568, 156 510.076 M 282.750 525.472 C 280.550 528.495, 280.520 530.602, 282.667 531.426 C 284.945 532.300, 286.151 530.836, 286.341 526.966 C 286.538 522.928, 285.052 522.309, 282.750 525.472 M 287.667 527.667 C 286.449 528.885, 286.978 531, 288.500 531 C 289.333 531, 290 530.111, 290 529 C 290 527.008, 288.934 526.399, 287.667 527.667 M 288.317 541.331 C 282.552 545.699, 280.741 549.548, 282.206 554.320 C 284.121 560.559, 287.535 558.542, 292.048 548.505 C 296.165 539.348, 296.462 537.985, 294.317 538.081 C 293.318 538.125, 290.618 539.587, 288.317 541.331 M 237.128 540.345 C 235.484 542.326, 234.799 547.277, 235.931 548.992 C 237.420 551.245, 238.879 549.159, 239.626 543.710 C 240.282 538.928, 239.348 537.671, 237.128 540.345 M 686.202 628.860 C 681.691 638.682, 678 647.232, 678 647.860 C 678 648.487, 678.823 649, 679.829 649 C 681.045 649, 682.443 647.324, 684 644 L 686.342 639 696.143 639 L 705.944 639 708.095 644 C 709.584 647.460, 710.824 649, 712.123 649 C 713.155 649, 714 648.536, 714 647.970 C 714 646.734, 710.536 638.431, 705.459 627.500 C 703.415 623.100, 700.917 617.587, 699.907 615.250 C 696.637 607.682, 695.334 608.976, 686.202 628.860 M 793.383 612.026 C 789.035 613.368, 782.284 620.969, 781.439 625.473 C 778.991 638.522, 786.887 648.988, 799.185 648.996 C 808.581 649.002, 813.626 646.048, 817.110 638.500 C 820.849 630.398, 818.293 620.631, 810.895 614.751 C 806.866 611.548, 798.932 610.314, 793.383 612.026 M 885.250 629.028 C 880.712 638.967, 877 647.527, 877 648.050 C 877 648.572, 877.879 649, 878.953 649 C 880.284 649, 881.660 647.488, 883.272 644.250 L 885.639 639.500 895.360 639.213 L 905.080 638.927 907.173 643.963 C 908.853 648.004, 909.735 649, 911.633 649 C 912.935 649, 914 648.846, 914 648.657 C 914 648.469, 910.279 640.032, 905.731 629.907 C 899.366 615.738, 897.006 611.438, 895.481 611.229 C 893.813 611, 892.197 613.811, 885.250 629.028 M 443 630.500 C 443 648.333, 443.072 649, 445 649 C 446.928 649, 447 648.333, 447 630.500 C 447 612.667, 446.928 612, 445 612 C 443.072 612, 443 612.667, 443 630.500 M 463 630.500 C 463 648.333, 463.072 649, 465 649 C 466.905 649, 467 648.333, 467 635 C 467 627.300, 467.407 621, 467.905 621 C 468.402 621, 473.821 627.329, 479.946 635.065 C 487.669 644.818, 491.607 649.030, 492.792 648.802 C 494.327 648.506, 494.500 646.654, 494.500 630.486 C 494.500 612.595, 494.488 612.498, 492.250 612.180 C 490.012 611.863, 490 611.930, 490 625.430 C 490 632.894, 489.658 639, 489.239 639 C 488.821 639, 483.758 632.929, 477.989 625.509 C 470.068 615.321, 466.949 612.016, 465.250 612.009 L 463 612 463 630.500 M 507.463 613.060 C 506.304 614.935, 508.249 615.871, 513.972 616.193 L 519.444 616.500 519.472 632.500 C 519.500 648.268, 519.532 648.505, 521.725 648.816 C 523.937 649.131, 523.951 649.041, 524.225 632.816 L 524.500 616.500 530.500 616 C 534.944 615.630, 536.500 615.111, 536.500 614 C 536.500 612.750, 534.135 612.454, 522.326 612.223 C 512.709 612.035, 507.930 612.304, 507.463 613.060 M 549.227 630.250 L 549.500 648.500 563 648.500 C 574.333 648.500, 576.500 648.259, 576.500 647 C 576.500 645.772, 574.452 645.449, 565.203 645.217 L 553.906 644.934 554.203 638.717 L 554.500 632.500 564.250 632.214 C 573.176 631.952, 574 631.762, 574 629.964 C 574 628.143, 573.272 628, 564 628 L 554 628 554 622 L 554 616 565 616 C 575.333 616, 576 615.879, 576 614 C 576 612.099, 575.333 612, 562.477 612 L 548.955 612 549.227 630.250 M 590 629.945 C 590 645.352, 590.231 648.151, 591.543 648.655 C 593.744 649.499, 593.856 649.195, 594.097 641.727 L 594.315 635 599.673 635 L 605.031 635 610.138 642 C 613.984 647.271, 615.833 649, 617.623 649 C 620.507 649, 620.566 648.257, 617.941 645 C 616.834 643.625, 614.571 640.585, 612.912 638.245 L 609.897 633.990 612.198 633.091 C 616.941 631.239, 619 628.229, 619 623.148 C 619 619.128, 618.516 617.910, 615.937 615.437 C 612.968 612.590, 612.525 612.490, 601.437 612.164 L 590 611.828 590 629.945 M 633.443 613.287 C 633.172 613.994, 633.074 622.207, 633.225 631.537 C 633.488 647.742, 633.589 648.500, 635.500 648.500 C 637.390 648.500, 637.515 647.741, 637.778 634.750 C 637.931 627.188, 638.381 621.022, 638.778 621.050 C 639.175 621.077, 644.401 627.377, 650.391 635.050 C 657.437 644.075, 661.938 649, 663.141 649 C 664.886 649, 665 647.866, 665 630.500 C 665 612.667, 664.928 612, 663 612 C 661.095 612, 661 612.667, 661 626 C 661 633.700, 660.663 639.980, 660.250 639.955 C 659.837 639.930, 654.589 633.630, 648.586 625.955 C 638.100 612.547, 634.790 609.778, 633.443 613.287 M 720 614 C 720 615.777, 720.667 616, 725.975 616 L 731.950 616 732.225 632.250 C 732.487 647.742, 732.593 648.500, 734.500 648.500 C 736.407 648.500, 736.513 647.742, 736.775 632.250 L 737.050 616 743.025 616 C 748.333 616, 749 615.777, 749 614 C 749 612.092, 748.333 612, 734.500 612 C 720.667 612, 720 612.092, 720 614 M 762.227 630.250 C 762.497 648.321, 762.522 648.503, 764.750 648.820 L 767 649.139 767 630.570 L 767 612 764.477 612 L 761.955 612 762.227 630.250 M 832.889 612.500 C 832.828 612.775, 832.778 613.900, 832.778 615 C 832.778 645.358, 832.999 649.147, 834.750 648.812 C 836.291 648.517, 836.560 646.764, 837 634.109 L 837.500 619.741 849 634.357 C 855.924 643.157, 861.196 648.978, 862.250 648.986 C 863.854 648.999, 864 647.458, 864 630.500 C 864 612.667, 863.928 612, 862 612 C 860.095 612, 859.999 612.676, 859.971 626.250 L 859.941 640.500 857.221 637.440 C 855.724 635.758, 850.568 629.345, 845.761 623.190 C 839.789 615.543, 836.386 612, 835.011 612 C 833.905 612, 832.950 612.225, 832.889 612.500 M 927 630.532 L 927 649.063 938.738 648.782 C 948.990 648.536, 950.518 648.279, 950.811 646.750 C 951.113 645.177, 950.128 645, 941.073 645 L 931 645 931 628.500 C 931 612.667, 930.919 612, 929 612 C 927.072 612, 927 612.667, 927 630.532 M 795.643 616.018 C 789.814 617.785, 786 623.310, 786 629.982 C 786 639.167, 791.433 644.993, 800 644.993 C 808.453 644.993, 814.002 639.162, 813.998 630.282 C 813.994 620.574, 804.626 613.293, 795.643 616.018 M 594.415 617.362 C 594.127 618.111, 594.029 621.374, 594.196 624.612 L 594.500 630.500 602.354 630.326 C 608.982 630.180, 610.583 629.801, 612.604 627.902 C 615.674 625.019, 615.652 621.561, 612.545 618.455 C 610.371 616.280, 609.225 616, 602.514 616 C 597.043 616, 594.792 616.378, 594.415 617.362 M 692.174 625.750 C 690.419 630.013, 688.987 633.837, 688.992 634.250 C 688.996 634.663, 692.332 635, 696.405 635 L 703.810 635 700.186 626.500 C 698.193 621.825, 696.293 618, 695.963 618 C 695.634 618, 693.929 621.487, 692.174 625.750 M 891.657 625.391 C 889.646 629.731, 888 633.668, 888 634.141 C 888 634.613, 891.375 635, 895.500 635 C 899.625 635, 903 634.823, 903 634.608 C 903 634.392, 901.271 630.455, 899.157 625.858 L 895.314 617.500 891.657 625.391" stroke="none" fill="#f0f2f5" fill-rule="evenodd"/><path d="M 0 540.001 L 0 1080.002 540.250 1079.751 L 1080.500 1079.500 1080.751 539.750 L 1081.002 -0 540.501 -0 L 0 0 0 540.001 M 0.496 540.500 C 0.496 837.500, 0.610 958.851, 0.750 810.168 C 0.890 661.485, 0.890 418.485, 0.750 270.168 C 0.610 121.851, 0.496 243.500, 0.496 540.500 M 200.112 432.545 C 183.445 436.161, 168.310 444.515, 155.953 456.920 C 142.398 470.528, 135.094 483.968, 131.431 502.043 C 129.173 513.190, 129.894 533.347, 132.927 543.821 C 138.354 562.564, 151.673 581.157, 167.363 591.890 C 173.079 595.800, 185.051 602.282, 185.580 601.753 C 185.819 601.514, 182.299 599.034, 177.757 596.243 C 152.483 580.707, 136.975 555.205, 135.304 526.430 C 134.601 514.332, 135.511 506.349, 137.413 507.928 C 138.112 508.508, 138.978 508.689, 139.338 508.329 C 139.697 507.970, 140.481 509.080, 141.079 510.797 C 141.689 512.547, 143.119 514.202, 144.334 514.564 C 147.111 515.393, 159 523.143, 159 524.125 C 159 524.535, 158.544 526.068, 157.988 527.532 C 156.632 531.099, 158.266 536.973, 161.776 541.149 C 164.470 544.354, 164.496 544.528, 164.179 556.945 C 163.865 569.253, 164.722 574.592, 167.265 576.164 C 169.071 577.280, 170.059 576.082, 169.423 573.548 C 169.101 572.267, 169.326 570.917, 169.923 570.548 C 170.519 570.179, 170.737 568.799, 170.406 567.481 C 169.960 565.703, 170.474 564.465, 172.402 562.678 C 173.831 561.354, 175 559.782, 175 559.185 C 175 558.588, 175.614 557.740, 176.365 557.300 C 177.115 556.860, 178.489 555.014, 179.418 553.197 C 180.346 551.380, 181.982 549.018, 183.053 547.947 C 184.124 546.876, 184.999 545.212, 184.997 544.250 C 184.996 543.288, 185.971 540.657, 187.164 538.405 C 188.357 536.152, 189.068 533.619, 188.744 532.775 C 188.420 531.931, 186.087 530.536, 183.559 529.675 C 181.017 528.809, 177.801 526.729, 176.364 525.021 C 173.827 522.006, 166.943 518, 164.299 518 C 163.569 518, 162.139 518.521, 161.119 519.158 C 158.862 520.567, 156 519.638, 156 517.496 C 156 516.635, 155.253 514.790, 154.340 513.397 C 153.074 511.464, 152.120 511.004, 150.318 511.456 C 147.458 512.174, 146.341 510.101, 147.958 507.078 C 148.797 505.510, 150.044 505, 153.035 505 C 155.216 505, 157 505.450, 157 506 C 157 506.550, 157.450 507, 158 507 C 158.550 507, 159 505.945, 159 504.655 C 159 503.365, 159.900 501.495, 161 500.500 C 162.100 499.505, 163 498.286, 163 497.792 C 163 496.010, 168.538 490, 170.180 490 C 171.162 490, 171.994 489.064, 172.180 487.750 C 172.356 486.512, 172.838 485.613, 173.250 485.750 C 173.662 485.887, 173.962 486.287, 173.915 486.638 C 173.815 487.381, 176.117 488.962, 177.329 488.985 C 178.529 489.007, 177.074 483.203, 174.773 478.790 C 173.687 476.705, 172.169 475, 171.399 475 C 170.630 475, 170 474.622, 170 474.161 C 170 473.434, 165.729 471, 164.453 471 C 164.204 471, 164 472.155, 164 473.566 C 164 474.977, 163.533 477.005, 162.962 478.072 C 162.005 479.859, 161.699 479.896, 159.083 478.543 C 157.521 477.735, 155.995 476.430, 155.693 475.643 C 155.002 473.842, 159.021 470.082, 160.909 470.764 C 161.866 471.109, 162.126 470.771, 161.719 469.710 C 161.389 468.850, 161.767 467.608, 162.559 466.951 C 163.352 466.293, 164 465.135, 164 464.378 C 164 462.702, 166.172 462.572, 167.753 464.153 C 168.593 464.993, 168.613 465.856, 167.827 467.324 C 166.962 468.940, 167.112 469.609, 168.583 470.684 C 170.948 472.414, 171.790 472.077, 173.829 468.588 C 175.096 466.420, 175.198 465.621, 174.250 465.281 C 173.563 465.035, 173 464.212, 173 463.452 C 173 461.968, 170.307 460.157, 165.518 458.417 L 162.535 457.333 165.201 456.664 C 166.667 456.296, 168.152 455.096, 168.501 453.998 C 168.849 452.899, 169.632 452, 170.239 452 C 170.846 452, 172.165 451.255, 173.171 450.345 C 174.319 449.307, 175 449.132, 175 449.876 C 175 450.529, 174.375 451.303, 173.611 451.596 C 171.319 452.475, 172.914 456, 175.603 456 C 177.390 456, 178.353 456.909, 179.517 459.694 C 180.365 461.726, 180.973 464.088, 180.867 464.944 C 180.761 465.800, 181.022 468.188, 181.448 470.250 C 182.071 473.267, 182.671 474, 184.513 474 C 186.160 474, 187.099 473.156, 187.850 471 C 188.425 469.350, 189.577 468, 190.410 468 C 191.242 468, 193.910 466.069, 196.338 463.709 C 199.620 460.519, 200.934 458.352, 201.455 455.266 C 201.841 452.983, 202.796 450.584, 203.578 449.935 C 205.430 448.398, 205.393 447, 203.500 447 C 202.675 447, 202 446.325, 202 445.500 C 202 443.507, 190.527 443.420, 186.404 445.381 C 184.807 446.141, 182.057 447.026, 180.294 447.347 C 174.439 448.416, 177.735 444.994, 186.534 440.871 C 198.703 435.168, 210.040 432.711, 224.712 432.596 C 231.429 432.543, 236.154 432.194, 235.212 431.820 C 232.112 430.590, 206.708 431.114, 200.112 432.545 M 218.543 447.930 C 217.859 449.038, 222.710 450.624, 223.713 449.620 C 224.506 448.827, 224.015 448.407, 221.334 447.584 C 220.143 447.218, 218.887 447.374, 218.543 447.930 M 213.750 448.750 C 211.609 449.235, 211.441 451.848, 213.500 452.638 C 214.325 452.955, 215 453.878, 215 454.690 C 215 455.515, 215.551 455.910, 216.250 455.584 C 216.938 455.263, 218.287 454.724, 219.250 454.384 C 221.201 453.696, 221.662 451, 219.829 451 C 219.185 451, 217.947 450.404, 217.079 449.676 C 216.210 448.948, 214.713 448.531, 213.750 448.750 M 595 450.576 C 585.663 453.028, 575.950 458.422, 569.825 464.557 C 563.311 471.082, 559.180 478.302, 555.841 489 C 553.709 495.831, 553.503 498.284, 553.529 516.500 C 553.553 532.582, 553.910 537.773, 555.352 543 C 561.542 565.435, 575.113 579.373, 594.837 583.553 C 611.686 587.124, 626.045 583.896, 637.249 574.018 C 642.451 569.432, 642.449 569.431, 643.744 577.500 L 644.546 582.500 652.023 582.500 L 659.500 582.500 659.500 546.500 L 659.500 510.500 632.715 510.234 L 605.930 509.967 606.215 520.062 L 606.500 530.158 621.500 530.329 L 636.500 530.500 636.221 536.473 C 635.687 547.919, 628.410 558.375, 618.742 561.586 C 611.118 564.118, 600.716 563.162, 593.884 559.303 C 587.664 555.789, 582.708 549.243, 580.490 541.612 C 577.039 529.743, 576.791 505.859, 579.994 494.006 C 582.523 484.646, 587.722 477.806, 595.447 473.670 C 598.831 471.858, 601.151 471.500, 609.500 471.500 C 618.551 471.500, 619.934 471.755, 624.070 474.187 C 628.911 477.033, 633.606 482.875, 634.876 487.634 L 635.641 490.500 647.961 490.782 L 660.281 491.064 659.638 486.282 C 657.455 470.022, 642.842 455.580, 623.467 450.533 C 616.175 448.634, 602.315 448.655, 595 450.576 M 728 516.500 L 728 584.066 739.250 583.783 L 750.500 583.500 750.500 516.500 L 750.500 449.500 739.250 449.217 L 728 448.934 728 516.500 M 679.001 460.750 L 679.002 471.500 690.751 471.386 L 702.500 471.272 702.784 460.636 L 703.068 450 691.034 450 L 679 450 679.001 460.750 M 261 454.897 C 258.525 455.778, 255.741 457.323, 254.813 458.330 C 253.836 459.390, 252.107 460.026, 250.702 459.842 C 249.369 459.667, 247.653 460.019, 246.889 460.624 C 246.125 461.229, 244.262 462.020, 242.750 462.381 C 238.804 463.324, 239.069 460.277, 243.241 456.728 L 246.500 453.956 243.500 454.612 C 241.850 454.973, 239.713 455.953, 238.750 456.789 C 236.718 458.555, 236.437 461.632, 238.250 462.280 C 240.366 463.036, 238.257 464.258, 234.280 464.580 C 231.871 464.775, 229.301 464.181, 227.193 462.943 C 222.224 460.024, 220.427 460.508, 214.917 466.250 C 209.827 471.555, 209.327 473.265, 211.436 478.173 C 211.926 479.314, 211.518 480.188, 210.153 480.918 C 208.389 481.862, 208.015 481.575, 206.998 478.495 C 205.295 473.335, 203.383 473.943, 203.982 479.453 C 204.158 481.071, 203.940 481.195, 202.714 480.178 C 201.523 479.189, 201.119 479.247, 200.648 480.474 C 200.287 481.415, 200.626 482, 201.531 482 C 202.339 482, 203 482.675, 203 483.500 C 203 484.325, 203.505 485, 204.122 485 C 204.898 485, 204.860 485.464, 204 486.500 C 203.140 487.536, 203.102 488, 203.878 488 C 204.495 488, 205 488.675, 205 489.500 C 205 490.333, 204.111 491, 203 491 C 201.457 491, 201 491.667, 201 493.917 C 201 495.521, 201.458 496.986, 202.017 497.172 C 203.067 497.522, 200.927 502.418, 197.734 506.973 C 195.223 510.553, 195.402 518.970, 198.061 522.350 C 199.881 524.664, 200.747 524.943, 205.477 524.735 C 208.422 524.606, 211.166 524.833, 211.573 525.240 C 212.553 526.220, 214.051 534.251, 214.419 540.500 C 214.581 543.250, 215.565 547.975, 216.607 551 C 218.726 557.157, 221.564 558.609, 225.144 555.369 C 228.276 552.536, 234 540.032, 234 536.026 C 234 533.615, 235.160 530.633, 237.524 526.966 C 241.435 520.898, 241.656 518.331, 238.225 518.813 C 237.001 518.985, 236 518.647, 236 518.063 C 236 517.478, 237.160 517, 238.577 517 C 241.346 517, 247.533 511.672, 246.572 510.116 C 246.264 509.617, 246.571 508.997, 247.256 508.736 C 249.978 507.701, 252.646 510.029, 255.442 515.878 C 257.351 519.872, 258.966 522, 260.090 522 C 261.301 522, 261.662 521.425, 261.307 520.064 C 260.650 517.554, 265.607 510.912, 267.573 511.667 C 268.358 511.968, 269 512.693, 269 513.278 C 269 513.864, 269.719 515.137, 270.598 516.108 C 271.477 517.080, 272.301 519.365, 272.429 521.187 C 272.691 524.915, 275.541 531, 277.026 531 C 278.484 531, 278.200 529.411, 276.488 527.990 C 275.327 527.026, 275.242 526.413, 276.126 525.349 C 277.014 524.278, 276.867 523.510, 275.477 521.975 C 273.471 519.758, 274.168 518.064, 276.343 519.870 C 278.152 521.371, 279.739 519.556, 280.665 514.927 C 281.448 511.012, 285.006 507.499, 286.323 509.341 C 286.778 509.978, 286.943 507.457, 286.690 503.738 C 286.254 497.355, 287.099 494.210, 288.364 497.506 C 289.274 499.878, 290.905 499.246, 291.600 496.250 C 291.951 494.738, 292.849 492.519, 293.597 491.319 C 294.756 489.458, 294.723 488.578, 293.367 485.319 C 288.163 472.804, 273.793 454.945, 268 453.791 C 266.625 453.517, 263.475 454.015, 261 454.897 M 367.024 454.548 C 352.755 458.526, 342.943 468.256, 339.449 481.892 C 336.443 493.626, 339.720 506.700, 347.611 514.456 C 352.746 519.503, 363.207 524.407, 375.481 527.520 C 404.430 534.864, 410.500 538.587, 410.500 549 C 410.500 558.428, 402.970 564.098, 389.510 564.804 C 376.625 565.480, 364.494 561.514, 353.122 552.907 C 350.283 550.758, 347.617 549, 347.199 549 C 346.121 549, 334 563.568, 334 564.864 C 334 566.391, 343.540 573.239, 350.554 576.747 C 359.790 581.366, 368.183 583.902, 378.589 585.216 C 386.652 586.234, 389.575 586.179, 397.321 584.860 C 420.572 580.902, 433.093 567.929, 433.378 547.500 C 433.668 526.700, 423.088 516.738, 391.984 508.525 C 374.367 503.874, 368.652 501.507, 365.003 497.350 C 362.433 494.423, 362 493.126, 362 488.348 C 362 483.224, 362.310 482.455, 365.773 478.992 C 367.873 476.892, 371.308 474.730, 373.523 474.115 C 384.653 471.025, 400.228 474.556, 412.397 482.929 C 414.852 484.618, 417.079 486, 417.347 486 C 418.579 486, 429.094 469.688, 428.634 468.489 C 427.694 466.039, 416.656 459.696, 408 456.632 C 400.435 453.954, 398.015 453.590, 386 453.323 C 376.170 453.103, 371.011 453.437, 367.024 454.548 M 459.591 459.852 C 459.301 460.321, 459.150 466.284, 459.255 473.102 L 459.445 485.500 453.187 485.799 L 446.929 486.097 447.214 495.799 L 447.500 505.500 452.785 505.618 C 455.692 505.683, 458.265 505.931, 458.503 506.169 C 458.741 506.407, 459.102 519.854, 459.306 536.051 C 459.580 557.812, 460.040 566.544, 461.068 569.500 C 463.018 575.105, 470.699 582.554, 476.132 584.110 C 482.986 586.071, 495.521 585.547, 502.250 583.018 L 508 580.856 508 572.095 C 508 567.276, 507.738 563.072, 507.418 562.752 C 507.099 562.432, 505.313 562.807, 503.451 563.585 C 499.018 565.437, 490.657 565.391, 486.989 563.494 C 482.402 561.122, 481.866 557.378, 482.201 530.062 L 482.500 505.624 494.699 505.562 C 502.107 505.524, 507.328 505.071, 507.992 504.407 C 508.661 503.739, 508.972 500.049, 508.793 494.907 L 508.500 486.500 495.250 486.221 L 482 485.942 482 472.471 L 482 459 471.059 459 C 465.041 459, 459.881 459.384, 459.591 459.852 M 199.159 467.604 C 199.611 469.976, 204 470.851, 204 468.570 C 204 467.706, 203.587 467, 203.082 467 C 202.577 467, 201.406 466.709, 200.480 466.354 C 199.212 465.867, 198.886 466.175, 199.159 467.604 M 807 485.098 C 794.960 487.449, 781.727 497.654, 775.996 509.008 C 767.626 525.590, 767.875 546.789, 776.624 562.443 C 791.158 588.446, 831.838 594.134, 854.133 573.279 C 856.810 570.775, 859 568.305, 859 567.790 C 859 566.920, 848.576 556.837, 847.048 556.227 C 846.672 556.077, 845.045 557.132, 843.432 558.570 C 841.819 560.009, 837.800 562.494, 834.500 564.092 C 829.394 566.565, 827.308 566.996, 820.500 566.982 C 813.788 566.969, 811.631 566.527, 807.101 564.233 C 800.621 560.953, 796.353 555.950, 793.930 548.795 L 792.138 543.500 828.069 543.238 L 864 542.975 863.983 535.738 C 863.899 500.813, 839.150 478.819, 807 485.098 M 908.874 485.106 C 896.094 486.169, 886.116 492.166, 881.437 501.597 C 879.946 504.601, 879.500 507.610, 879.500 514.664 C 879.500 523.247, 879.692 524.103, 882.532 528.164 C 887.137 534.752, 893.239 538.213, 909.451 543.434 C 925.992 548.760, 931 551.960, 931 557.204 C 931 561.885, 925.690 566.580, 919.420 567.442 C 910.951 568.607, 893.361 563.140, 886.813 557.307 C 884.540 555.282, 883.555 556.080, 878.309 564.190 C 874.026 570.809, 873.900 571.211, 875.656 572.590 C 878.939 575.168, 895.371 582.754, 900 583.828 C 922.360 589.018, 941.205 583.116, 948.900 568.515 C 950.587 565.313, 951 562.742, 951 555.436 C 951 546.977, 950.788 546.023, 947.956 541.748 C 943.671 535.278, 936.973 531.396, 919.682 525.357 C 902.960 519.517, 899.632 517.253, 899.785 511.823 C 899.853 509.417, 900.763 507.710, 903.084 505.635 C 906.191 502.857, 906.555 502.783, 914.895 503.209 C 923.311 503.638, 924.331 503.944, 939.605 510.620 C 941.003 511.231, 949.343 497.336, 948.655 495.543 C 948.058 493.986, 937.118 488.642, 931.433 487.129 C 923.983 485.146, 916.480 484.474, 908.874 485.106 M 680 535 L 680 584.066 691.250 583.783 L 702.500 583.500 702.500 535 L 702.500 486.500 691.250 486.217 L 680 485.934 680 535 M 207.578 495.137 L 205.725 498.274 209.442 497.577 C 212.625 496.980, 213.495 497.243, 215.499 499.405 C 217.366 501.419, 218.746 501.912, 222.313 501.840 C 229.645 501.693, 231.683 499.274, 224.936 498.727 C 222.610 498.539, 221.190 497.760, 220.444 496.263 C 219.423 494.216, 219.245 494.183, 217.677 495.752 C 216.108 497.321, 216 497.318, 216 495.714 C 216 494.667, 215.222 494, 214 494 C 212.900 494, 212 493.550, 212 493 C 212 490.867, 209.342 492.151, 207.578 495.137 M 293.861 498.914 C 292.562 499.967, 291.799 501.128, 292.164 501.495 C 293.181 502.516, 297 500.123, 297 498.465 C 297 496.571, 296.697 496.615, 293.861 498.914 M 807.500 504.879 C 805.300 505.888, 802.196 508.016, 800.601 509.607 C 797.673 512.530, 793.749 520.193, 792.591 525.250 L 791.962 528 816.956 528 L 841.950 528 841.352 524.750 C 839.732 515.950, 834.454 508.366, 827.661 505.078 C 822.162 502.416, 813.065 502.326, 807.500 504.879 M 156 510.076 C 156 510.584, 156.800 511, 157.777 511 C 158.755 511, 160.556 511.701, 161.779 512.558 C 164.310 514.331, 166.741 513.598, 165.057 511.569 C 164.485 510.880, 164.202 510.131, 164.428 509.905 C 164.654 509.680, 162.850 509.418, 160.419 509.324 C 157.989 509.230, 156 509.568, 156 510.076 M 282.750 525.472 C 280.550 528.495, 280.520 530.602, 282.667 531.426 C 284.945 532.300, 286.151 530.836, 286.341 526.966 C 286.538 522.928, 285.052 522.309, 282.750 525.472 M 287.667 527.667 C 286.449 528.885, 286.978 531, 288.500 531 C 289.333 531, 290 530.111, 290 529 C 290 527.008, 288.934 526.399, 287.667 527.667 M 288.317 541.331 C 282.552 545.699, 280.741 549.548, 282.206 554.320 C 284.121 560.559, 287.535 558.542, 292.048 548.505 C 296.165 539.348, 296.462 537.985, 294.317 538.081 C 293.318 538.125, 290.618 539.587, 288.317 541.331 M 237.128 540.345 C 235.484 542.326, 234.799 547.277, 235.931 548.992 C 237.420 551.245, 238.879 549.159, 239.626 543.710 C 240.282 538.928, 239.348 537.671, 237.128 540.345 M 686.202 628.860 C 681.691 638.682, 678 647.232, 678 647.860 C 678 648.487, 678.823 649, 679.829 649 C 681.045 649, 682.443 647.324, 684 644 L 686.342 639 696.143 639 L 705.944 639 708.095 644 C 709.584 647.460, 710.824 649, 712.123 649 C 713.155 649, 714 648.536, 714 647.970 C 714 646.734, 710.536 638.431, 705.459 627.500 C 703.415 623.100, 700.917 617.587, 699.907 615.250 C 696.637 607.682, 695.334 608.976, 686.202 628.860 M 793.383 612.026 C 789.035 613.368, 782.284 620.969, 781.439 625.473 C 778.991 638.522, 786.887 648.988, 799.185 648.996 C 808.581 649.002, 813.626 646.048, 817.110 638.500 C 820.849 630.398, 818.293 620.631, 810.895 614.751 C 806.866 611.548, 798.932 610.314, 793.383 612.026 M 885.250 629.028 C 880.712 638.967, 877 647.527, 877 648.050 C 877 648.572, 877.879 649, 878.953 649 C 880.284 649, 881.660 647.488, 883.272 644.250 L 885.639 639.500 895.360 639.213 L 905.080 638.927 907.173 643.963 C 908.853 648.004, 909.735 649, 911.633 649 C 912.935 649, 914 648.846, 914 648.657 C 914 648.469, 910.279 640.032, 905.731 629.907 C 899.366 615.738, 897.006 611.438, 895.481 611.229 C 893.813 611, 892.197 613.811, 885.250 629.028 M 443 630.500 C 443 648.333, 443.072 649, 445 649 C 446.928 649, 447 648.333, 447 630.500 C 447 612.667, 446.928 612, 445 612 C 443.072 612, 443 612.667, 443 630.500 M 463 630.500 C 463 648.333, 463.072 649, 465 649 C 466.905 649, 467 648.333, 467 635 C 467 627.300, 467.407 621, 467.905 621 C 468.402 621, 473.821 627.329, 479.946 635.065 C 487.669 644.818, 491.607 649.030, 492.792 648.802 C 494.327 648.506, 494.500 646.654, 494.500 630.486 C 494.500 612.595, 494.488 612.498, 492.250 612.180 C 490.012 611.863, 490 611.930, 490 625.430 C 490 632.894, 489.658 639, 489.239 639 C 488.821 639, 483.758 632.929, 477.989 625.509 C 470.068 615.321, 466.949 612.016, 465.250 612.009 L 463 612 463 630.500 M 507.463 613.060 C 506.304 614.935, 508.249 615.871, 513.972 616.193 L 519.444 616.500 519.472 632.500 C 519.500 648.268, 519.532 648.505, 521.725 648.816 C 523.937 649.131, 523.951 649.041, 524.225 632.816 L 524.500 616.500 530.500 616 C 534.944 615.630, 536.500 615.111, 536.500 614 C 536.500 612.750, 534.135 612.454, 522.326 612.223 C 512.709 612.035, 507.930 612.304, 507.463 613.060 M 549.227 630.250 L 549.500 648.500 563 648.500 C 574.333 648.500, 576.500 648.259, 576.500 647 C 576.500 645.772, 574.452 645.449, 565.203 645.217 L 553.906 644.934 554.203 638.717 L 554.500 632.500 564.250 632.214 C 573.176 631.952, 574 631.762, 574 629.964 C 574 628.143, 573.272 628, 564 628 L 554 628 554 622 L 554 616 565 616 C 575.333 616, 576 615.879, 576 614 C 576 612.099, 575.333 612, 562.477 612 L 548.955 612 549.227 630.250 M 590 629.945 C 590 645.352, 590.231 648.151, 591.543 648.655 C 593.744 649.499, 593.856 649.195, 594.097 641.727 L 594.315 635 599.673 635 L 605.031 635 610.138 642 C 613.984 647.271, 615.833 649, 617.623 649 C 620.507 649, 620.566 648.257, 617.941 645 C 616.834 643.625, 614.571 640.585, 612.912 638.245 L 609.897 633.990 612.198 633.091 C 616.941 631.239, 619 628.229, 619 623.148 C 619 619.128, 618.516 617.910, 615.937 615.437 C 612.968 612.590, 612.525 612.490, 601.437 612.164 L 590 611.828 590 629.945 M 633.443 613.287 C 633.172 613.994, 633.074 622.207, 633.225 631.537 C 633.488 647.742, 633.589 648.500, 635.500 648.500 C 637.390 648.500, 637.515 647.741, 637.778 634.750 C 637.931 627.188, 638.381 621.022, 638.778 621.050 C 639.175 621.077, 644.401 627.377, 650.391 635.050 C 657.437 644.075, 661.938 649, 663.141 649 C 664.886 649, 665 647.866, 665 630.500 C 665 612.667, 664.928 612, 663 612 C 661.095 612, 661 612.667, 661 626 C 661 633.700, 660.663 639.980, 660.250 639.955 C 659.837 639.930, 654.589 633.630, 648.586 625.955 C 638.100 612.547, 634.790 609.778, 633.443 613.287 M 720 614 C 720 615.777, 720.667 616, 725.975 616 L 731.950 616 732.225 632.250 C 732.487 647.742, 732.593 648.500, 734.500 648.500 C 736.407 648.500, 736.513 647.742, 736.775 632.250 L 737.050 616 743.025 616 C 748.333 616, 749 615.777, 749 614 C 749 612.092, 748.333 612, 734.500 612 C 720.667 612, 720 612.092, 720 614 M 762.227 630.250 C 762.497 648.321, 762.522 648.503, 764.750 648.820 L 767 649.139 767 630.570 L 767 612 764.477 612 L 761.955 612 762.227 630.250 M 832.889 612.500 C 832.828 612.775, 832.778 613.900, 832.778 615 C 832.778 645.358, 832.999 649.147, 834.750 648.812 C 836.291 648.517, 836.560 646.764, 837 634.109 L 837.500 619.741 849 634.357 C 855.924 643.157, 861.196 648.978, 862.250 648.986 C 863.854 648.999, 864 647.458, 864 630.500 C 864 612.667, 863.928 612, 862 612 C 860.095 612, 859.999 612.676, 859.971 626.250 L 859.941 640.500 857.221 637.440 C 855.724 635.758, 850.568 629.345, 845.761 623.190 C 839.789 615.543, 836.386 612, 835.011 612 C 833.905 612, 832.950 612.225, 832.889 612.500 M 927 630.532 L 927 649.063 938.738 648.782 C 948.990 648.536, 950.518 648.279, 950.811 646.750 C 951.113 645.177, 950.128 645, 941.073 645 L 931 645 931 628.500 C 931 612.667, 930.919 612, 929 612 C 927.072 612, 927 612.667, 927 630.532 M 795.643 616.018 C 789.814 617.785, 786 623.310, 786 629.982 C 786 639.167, 791.433 644.993, 800 644.993 C 808.453 644.993, 814.002 639.162, 813.998 630.282 C 813.994 620.574, 804.626 613.293, 795.643 616.018 M 594.415 617.362 C 594.127 618.111, 594.029 621.374, 594.196 624.612 L 594.500 630.500 602.354 630.326 C 608.982 630.180, 610.583 629.801, 612.604 627.902 C 615.674 625.019, 615.652 621.561, 612.545 618.455 C 610.371 616.280, 609.225 616, 602.514 616 C 597.043 616, 594.792 616.378, 594.415 617.362 M 692.174 625.750 C 690.419 630.013, 688.987 633.837, 688.992 634.250 C 688.996 634.663, 692.332 635, 696.405 635 L 703.810 635 700.186 626.500 C 698.193 621.825, 696.293 618, 695.963 618 C 695.634 618, 693.929 621.487, 692.174 625.750 M 891.657 625.391 C 889.646 629.731, 888 633.668, 888 634.141 C 888 634.613, 891.375 635, 895.500 635 C 899.625 635, 903 634.823, 903 634.608 C 903 634.392, 901.271 630.455, 899.157 625.858 L 895.314 617.500 891.657 625.391" stroke="none" fill="#1c2c54" fill-rule="evenodd"/></svg>