<svg xmlns="http://www.w3.org/2000/svg" width="400" height="400" viewBox="0 0 400 400" version="1.1"><path d="M 195.500 65.500 C 195.500 71.788, 195.582 71.997, 198 71.921 C 199.375 71.878, 199.938 71.615, 199.250 71.338 C 198.563 71.060, 198 69.713, 198 68.343 C 198 65.028, 201.186 65.551, 202 69 C 202.323 70.369, 203.368 71.640, 204.321 71.823 C 205.927 72.133, 205.916 71.911, 204.177 68.815 C 202.814 66.388, 202.576 65.034, 203.309 63.872 C 205.093 61.044, 203.404 59, 199.281 59 L 195.500 59 195.500 65.500 M 198 62.500 C 198 64.333, 198.533 65, 200 65 C 201.467 65, 202 64.333, 202 62.500 C 202 60.667, 201.467 60, 200 60 C 198.533 60, 198 60.667, 198 62.500 M 182.287 63.296 C 179 65.018, 178.283 65.832, 179.022 67.001 C 179.843 68.299, 179.971 68.280, 179.985 66.857 C 179.993 65.953, 180.615 64.978, 181.368 64.689 C 182.987 64.068, 187.625 73.180, 186.564 74.897 C 185.594 76.466, 187.272 76.262, 189.559 74.532 C 190.716 73.657, 190.981 73.051, 190.214 73.032 C 188.687 72.994, 184.727 64.251, 185.598 62.841 C 185.930 62.304, 186.832 62.105, 187.601 62.400 C 188.371 62.696, 189 62.501, 189 61.969 C 189 60.469, 186.889 60.887, 182.287 63.296 M 216.872 65.667 C 216.118 66.583, 213.796 68.572, 211.713 70.085 C 209.377 71.782, 208.354 73.101, 209.043 73.527 C 209.657 73.906, 210.825 73.266, 211.639 72.105 C 212.825 70.412, 213.503 70.199, 215.059 71.032 C 217.202 72.178, 217.730 75.991, 215.750 76.015 C 214.917 76.026, 215 76.354, 216 77 C 218.287 78.478, 218.558 78.259, 218.782 74.750 C 218.897 72.963, 219.257 69.813, 219.583 67.750 C 220.218 63.733, 219.144 62.908, 216.872 65.667 M 215.617 67.870 C 214.146 69.496, 214.117 69.831, 215.406 70.325 C 216.342 70.685, 217.137 70.144, 217.540 68.874 C 218.434 66.058, 217.635 65.641, 215.617 67.870 M 171.589 69.901 C 168.720 73.072, 169.894 75.451, 174.508 75.817 C 179.355 76.201, 180.778 77.358, 179.016 79.480 C 178.195 80.470, 176.942 80.812, 175.609 80.410 C 173.914 79.900, 173.740 80.027, 174.723 81.060 C 176.656 83.093, 181 80.685, 181 77.580 C 181 74.563, 179.779 73.739, 175.109 73.604 C 172.614 73.532, 171.500 73.037, 171.500 72 C 171.500 71.082, 172.383 70.532, 173.777 70.582 C 175.030 70.628, 175.902 70.206, 175.715 69.645 C 175.103 67.808, 173.387 67.915, 171.589 69.901 M 229.386 70.748 C 230.271 72.262, 224.148 79.956, 222.038 79.982 C 221.193 79.992, 222.039 81.251, 224.038 82.959 C 227.672 86.066, 230 86.798, 230 84.833 C 230 84.192, 229.716 83.951, 229.369 84.298 C 228.417 85.249, 225 83.124, 225 81.581 C 225 80.840, 226.762 78.641, 228.916 76.695 L 232.831 73.157 230.744 71.329 C 229.596 70.323, 228.985 70.062, 229.386 70.748 M 164.041 75.450 C 162.979 76.730, 163.011 77, 164.226 77 C 165.035 77, 166.404 78.800, 167.268 81 C 168.132 83.200, 168.538 84.995, 168.170 84.988 C 167.801 84.981, 165.628 83.906, 163.341 82.597 C 160.443 80.940, 158.864 80.536, 158.134 81.266 C 157.404 81.996, 159.047 83.224, 163.550 85.316 C 167.105 86.968, 170.245 88.088, 170.527 87.806 C 170.810 87.524, 169.755 84.280, 168.184 80.597 C 165.732 74.849, 165.145 74.120, 164.041 75.450 M 240 81.241 C 240 82.925, 233.613 89, 231.843 89 C 231.084 89, 231.099 89.414, 231.893 90.371 C 232.827 91.496, 233.700 91.120, 236.765 88.275 C 238.819 86.368, 241.313 84.494, 242.307 84.111 C 244.012 83.453, 243.997 83.308, 242.057 81.552 C 240.332 79.990, 240 79.940, 240 81.241 M 152.004 89.374 C 152.007 89.993, 153.355 92.525, 155 95 C 156.645 97.475, 157.993 100.153, 157.996 100.950 C 157.999 102.062, 158.275 102.125, 159.176 101.224 C 160.078 100.322, 159.929 99.579, 158.538 98.042 C 157.053 96.401, 156.952 95.762, 157.984 94.519 C 159.583 92.592, 161.662 92.573, 162.726 94.474 C 163.432 95.737, 163.706 95.700, 164.631 94.219 C 165.582 92.697, 164.888 92.234, 158.856 90.369 C 154.367 88.981, 152.001 88.637, 152.004 89.374 M 244.946 90.034 C 244.049 90.589, 243.500 92.555, 243.500 95.214 C 243.500 98.833, 243.189 99.500, 241.500 99.500 C 239.975 99.500, 239.509 98.846, 239.539 96.750 C 239.580 93.946, 238.634 93.165, 237.473 95.044 C 237.118 95.618, 237.570 97.220, 238.476 98.604 C 239.686 100.451, 240.841 101.038, 242.813 100.810 C 245.285 100.525, 245.500 100.140, 245.500 96 C 245.500 92.167, 245.796 91.500, 247.500 91.500 C 248.940 91.500, 249.477 92.139, 249.417 93.783 C 249.364 95.251, 249.679 95.721, 250.300 95.100 C 252.558 92.842, 247.754 88.297, 244.946 90.034 M 155.057 93.107 C 155.907 94.694, 156.469 94.931, 157.334 94.066 C 158.200 93.200, 158.115 92.684, 156.992 91.974 C 154.566 90.440, 153.854 90.858, 155.057 93.107 M 148.046 107.914 C 147.432 109.062, 147.347 110, 147.858 110 C 148.886 110, 150.304 106.971, 149.605 106.271 C 149.361 106.028, 148.660 106.767, 148.046 107.914 M 250.047 106.500 C 250.023 107.986, 251.808 110.526, 252.435 109.898 C 252.735 109.599, 252.323 108.487, 251.521 107.427 C 250.720 106.367, 250.056 105.950, 250.047 106.500 M 193.953 109.703 C 193.233 110.857, 192.094 111.590, 191.423 111.332 C 190.752 111.074, 189.917 111.325, 189.569 111.888 C 189.221 112.452, 188.347 112.687, 187.628 112.411 C 186.909 112.135, 185.782 112.558, 185.123 113.351 C 184.465 114.145, 183.080 114.572, 182.045 114.302 C 180.728 113.957, 179.734 114.630, 178.729 116.548 C 177.816 118.290, 177.038 118.870, 176.588 118.143 C 175.433 116.273, 174.014 116.832, 172.974 119.567 C 172.226 121.535, 171.529 121.985, 169.988 121.496 C 168.341 120.973, 167.868 121.412, 167.364 123.929 C 167.026 125.618, 166.131 127, 165.375 127 C 164.619 127, 164 127.886, 164 128.969 C 164 130.263, 163.511 130.750, 162.573 130.390 C 161.736 130.068, 160.600 130.804, 159.823 132.171 C 159.095 133.452, 157.825 134.500, 157 134.500 C 156.039 134.500, 155.387 135.667, 155.187 137.750 C 155.014 139.537, 154.452 141, 153.937 141 C 152.685 141, 152.745 144.654, 154.035 147.066 C 154.850 148.588, 154.743 149, 153.535 149 C 151.825 149, 151.440 151.536, 153.004 152.502 C 153.556 152.843, 153.745 154.169, 153.424 155.448 C 153.002 157.127, 153.439 158.194, 154.993 159.283 C 156.408 160.273, 156.762 161.029, 156.025 161.485 C 154.176 162.628, 156.878 165, 160.029 165 C 162.388 165, 162.727 165.329, 162.249 167.156 C 161.731 169.135, 161.977 169.265, 165.224 168.738 C 167.171 168.423, 169.155 168.530, 169.632 168.978 C 170.987 170.247, 175.131 168.216, 175.711 165.997 C 176.362 163.507, 177.111 163.506, 181.984 165.992 C 191.942 171.072, 196.428 180.364, 193.794 190.459 L 192.500 195.418 186.079 196.713 C 178.257 198.292, 176.675 199.377, 183.520 198.469 C 187.242 197.976, 190.014 198.318, 194.474 199.824 L 200.445 201.840 206.707 199.784 C 211.949 198.064, 213.790 197.891, 218.013 198.726 C 224.900 200.088, 223.288 198.858, 215.685 196.950 C 208.294 195.096, 207.036 193.282, 207.015 184.446 C 206.995 176.166, 210.520 170.544, 218.279 166.481 C 223.585 163.703, 223.950 163.645, 225.757 165.280 C 227.704 167.042, 232 167.657, 232 166.173 C 232 165.718, 233.350 165.545, 235 165.787 C 237.276 166.121, 238 165.837, 238 164.613 C 238 163.487, 238.906 163, 241 163 C 244.390 163, 244.645 162.366, 242.492 159.292 C 241.108 157.316, 241.149 157.088, 242.992 156.502 C 245.072 155.842, 245.825 153, 243.921 153 C 243.241 153, 243.085 151.887, 243.500 150 C 243.884 148.250, 243.748 147, 243.173 147 C 242.631 147, 242.423 146.100, 242.710 145 C 243.119 143.437, 242.741 143, 240.981 143 C 238.886 143, 238.771 142.684, 239.345 138.500 C 239.684 136.025, 239.621 134, 239.204 134 C 238.788 134, 238.627 132.112, 238.847 129.804 L 239.247 125.608 236.676 127.293 C 233.680 129.256, 232.667 128.332, 232.565 123.546 C 232.514 121.152, 232.104 120.568, 230.650 120.817 C 229.539 121.007, 229.063 120.707, 229.459 120.067 C 229.860 119.417, 229.117 119, 227.559 119 C 226.152 119, 225 118.550, 225 118 C 225 117.450, 223.706 117, 222.125 117 C 219.735 117, 219.149 116.497, 218.654 114.020 C 217.999 110.744, 215.537 110.732, 214.500 114 C 213.743 116.386, 211 117.453, 211 115.362 C 211 114.372, 210.442 114, 209.500 114.362 C 208.636 114.693, 208 114.380, 208 113.624 C 208 111.720, 204.341 108.639, 203.567 109.891 C 203.220 110.453, 202.321 110.677, 201.569 110.388 C 200.817 110.100, 199.899 110.354, 199.529 110.953 C 199.099 111.649, 198.206 111.241, 197.059 109.825 L 195.263 107.606 193.953 109.703 M 136 115.678 C 136 116.439, 137.624 118.487, 139.608 120.229 C 142.826 123.054, 143.016 123.477, 141.358 124.129 C 140.336 124.531, 138.086 124.891, 136.357 124.930 C 134.463 124.972, 132.973 125.628, 132.607 126.582 C 131.750 128.815, 131.827 129.004, 133.355 128.417 C 134.100 128.132, 137.025 128.777, 139.855 129.853 C 144.146 131.483, 145 131.565, 145 130.345 C 145 129.540, 144.602 129.128, 144.115 129.429 C 143.629 129.729, 141.492 129.354, 139.365 128.594 L 135.500 127.213 140.750 126.478 C 143.637 126.073, 146 125.511, 146 125.227 C 146 124.944, 144.313 123.167, 142.250 121.279 C 140.119 119.328, 139.296 118.097, 140.343 118.427 C 141.356 118.747, 143.269 119.280, 144.593 119.613 C 145.917 119.945, 147.014 120.731, 147.030 121.358 C 147.047 121.986, 147.538 121.679, 148.122 120.675 C 148.706 119.671, 149.030 118.769, 148.842 118.671 C 148.654 118.572, 145.688 117.548, 142.250 116.393 C 137.274 114.723, 136 114.577, 136 115.678 M 257.500 119.127 C 251.587 123.923, 250.995 125, 254.277 125 C 255.621 125, 258.809 125.286, 261.360 125.636 C 264.732 126.098, 266 125.932, 266 125.029 C 266 124.307, 265.338 124.040, 264.421 124.392 C 263.552 124.725, 261.086 124.718, 258.940 124.374 L 255.039 123.751 258.639 120.890 C 260.618 119.317, 262.593 118.248, 263.026 118.516 C 263.459 118.784, 263.578 118.102, 263.290 117.001 C 263.002 115.901, 262.707 115.016, 262.633 115.036 C 262.560 115.055, 260.250 116.896, 257.500 119.127 M 191.370 124.477 C 191.049 125.315, 190.112 126, 189.288 126 C 188.190 126, 188.419 126.656, 190.145 128.456 C 191.648 130.023, 192.649 130.476, 192.912 129.706 C 193.139 129.043, 193.864 128.050, 194.522 127.500 C 195.430 126.742, 195.265 126.071, 193.838 124.727 C 192.201 123.187, 191.878 123.154, 191.370 124.477 M 215.868 125.702 C 214.361 127.118, 214.380 127.380, 216.118 129.118 C 217.960 130.960, 218.040 130.960, 219.880 129.120 C 221.721 127.279, 221.720 127.205, 219.869 125.620 C 217.676 123.742, 217.960 123.737, 215.868 125.702 M 261.500 132.158 C 258.750 132.599, 255.887 132.739, 255.139 132.469 C 254.223 132.138, 253.977 132.499, 254.389 133.570 C 254.725 134.447, 255.007 135.464, 255.015 135.832 C 255.024 136.199, 255.375 135.959, 255.795 135.297 C 256.216 134.635, 258.571 133.820, 261.030 133.486 L 265.500 132.878 260.750 137.243 C 258.137 139.644, 256 141.916, 256 142.291 C 256 142.667, 258.921 142.867, 262.491 142.737 C 268.079 142.533, 268.983 142.240, 268.991 140.628 C 268.997 139.267, 268.658 139.026, 267.750 139.747 C 267.063 140.293, 264.700 141.056, 262.500 141.444 L 258.500 142.148 263.346 137.192 C 266.011 134.467, 267.811 132.038, 267.346 131.796 C 266.881 131.553, 264.250 131.716, 261.500 132.158 M 130.732 135.917 C 130.407 137.162, 130.587 137.755, 131.180 137.389 C 132.671 136.467, 140.248 140.152, 139.140 141.260 C 138.630 141.770, 136.391 142.257, 134.164 142.343 C 131.165 142.459, 129.989 142.975, 129.630 144.329 C 129.330 145.462, 129.594 145.986, 130.323 145.706 C 130.970 145.458, 134.088 144.676, 137.250 143.968 C 140.412 143.261, 143 142.311, 143 141.858 C 143 141.405, 140.637 139.842, 137.750 138.386 C 134.863 136.929, 132.225 135.309, 131.889 134.784 C 131.553 134.260, 131.032 134.770, 130.732 135.917 M 212.750 144.250 C 211.083 145.917, 211.083 146.083, 212.750 147.750 C 214.417 149.417, 214.583 149.417, 216.250 147.750 C 217.917 146.083, 217.917 145.917, 216.250 144.250 C 214.583 142.583, 214.417 142.583, 212.750 144.250 M 256.013 149 C 255.996 151.446, 256.136 151.493, 262.498 151.165 C 266.586 150.954, 269.001 150.397, 269.001 149.665 C 269.002 148.875, 267.191 148.613, 263.372 148.850 C 259.421 149.096, 257.486 148.797, 256.886 147.850 C 256.279 146.892, 256.026 147.226, 256.013 149 M 174.911 150.979 C 173.457 152.533, 173.463 152.853, 174.974 154.720 L 176.627 156.761 178.919 154.381 C 180.207 153.042, 180.665 152, 179.965 152 C 179.281 152, 178.221 151.388, 177.610 150.640 C 176.685 149.507, 176.234 149.564, 174.911 150.979 M 138.683 152.607 C 136.626 153.722, 135.514 153.842, 134.560 153.050 C 132.042 150.960, 130 152.940, 130 157.470 L 130 161.727 135.109 160.798 C 137.919 160.288, 140.844 160.110, 141.609 160.403 C 142.479 160.737, 143 160.264, 143 159.142 C 143 157.716, 142.383 157.437, 140 157.787 C 137.891 158.096, 137 157.813, 137 156.833 C 137 156.066, 138.350 154.929, 140 154.306 C 141.650 153.683, 143 152.685, 143 152.087 C 143 150.654, 142.081 150.765, 138.683 152.607 M 131 156.930 C 131 158.487, 131.638 159, 133.573 159 C 136.856 159, 136.564 155.655, 133.240 155.180 C 131.539 154.938, 131 155.359, 131 156.930 M 262.250 157.786 C 258.813 158.645, 256 159.712, 256 160.157 C 256 160.602, 258.363 162.158, 261.250 163.614 C 264.137 165.071, 266.831 166.766, 267.235 167.381 C 267.719 168.119, 267.973 167.989, 267.981 167 C 267.987 166.154, 266 164.680, 263.425 163.621 C 258.120 161.440, 258.691 159.893, 264.888 159.657 C 268.065 159.535, 268.990 159.106, 268.994 157.750 C 268.997 156.787, 268.887 156.050, 268.750 156.112 C 268.613 156.174, 265.688 156.927, 262.250 157.786 M 188 161.879 C 188 162.362, 189.238 163.280, 190.750 163.919 C 192.262 164.557, 195.039 166.351, 196.920 167.903 L 200.341 170.727 204.747 167.363 C 207.170 165.513, 209.655 164, 210.268 164 C 210.881 164, 210.509 163.339, 209.441 162.532 C 208.374 161.724, 206.037 161.049, 204.250 161.032 C 201.689 161.007, 201 161.411, 201 162.941 C 201 165.884, 199.314 166.314, 196.970 163.970 C 195.305 162.305, 194.569 162.112, 193.445 163.046 C 192.325 163.975, 191.892 163.883, 191.405 162.613 C 190.761 160.935, 188 160.340, 188 161.879 M 136 167.694 C 131.826 169.186, 130.747 174.747, 134 178 C 136.571 180.571, 140.039 180.544, 143.365 177.927 C 149.539 173.071, 143.691 164.945, 136 167.694 M 253.484 172.097 C 252.648 177.043, 252.665 177.388, 253.756 177.752 C 254.254 177.918, 254.456 176.656, 254.206 174.948 C 253.778 172.033, 253.926 171.863, 256.625 172.172 C 259.507 172.501, 259.732 172.999, 258.467 176.250 C 258.002 177.446, 258.265 178, 259.299 178 C 260.290 178, 260.642 177.348, 260.319 176.113 C 259.740 173.896, 261.162 172.741, 263.410 173.604 C 265.532 174.418, 265.435 177.647, 263.250 178.920 C 261.632 179.862, 261.628 179.941, 263.203 179.970 C 264.330 179.990, 265.258 178.732, 265.947 176.250 C 266.520 174.188, 266.989 172.275, 266.990 172 C 266.991 171.725, 265.416 171.419, 263.490 171.321 C 261.565 171.222, 258.673 170.485, 257.064 169.682 L 254.138 168.222 253.484 172.097 M 136 170.290 C 132.739 171.934, 132.201 175.502, 134.988 176.994 C 137.808 178.503, 143.676 176.595, 144.535 173.890 C 145.868 169.690, 141.143 167.697, 136 170.290 M 250.682 180.652 C 249.274 182.060, 250.079 183.872, 252.250 184.180 C 255.991 184.712, 255.018 187.500, 251.092 187.500 C 249.218 187.500, 247.518 187.985, 247.316 188.579 C 247.090 189.239, 248.489 189.627, 250.923 189.579 C 253.909 189.520, 255.011 189.935, 255.355 191.250 C 256.081 194.025, 258.852 193.290, 261.011 189.750 C 262.867 186.706, 263.728 183.939, 262.408 185.258 C 261.697 185.970, 252.788 182.275, 251.952 180.922 C 251.628 180.398, 251.057 180.277, 250.682 180.652 M 147.871 182.637 C 147.394 183.748, 140.383 187, 138.466 187 C 136.811 187, 136.471 189.555, 138 190.500 C 138.550 190.840, 139 190.703, 139 190.195 C 139 189.241, 147.919 185.404, 149.250 185.785 C 150.244 186.070, 150.177 184.827, 149.106 183.137 C 148.631 182.387, 148.075 182.162, 147.871 182.637 M 255.697 187.348 C 255.096 188.914, 256.750 191, 258.593 191 C 259.653 191, 261.468 188.072, 260.774 187.481 C 259.333 186.256, 256.148 186.173, 255.697 187.348 M 145.635 194.073 C 144.186 195.212, 143 197.030, 143 198.112 C 143 200.898, 147.304 208.909, 147.736 206.927 C 147.924 206.062, 150.304 204.262, 153.024 202.927 C 155.744 201.592, 157.976 200.195, 157.984 199.821 C 158.016 198.464, 151.224 192, 149.767 192 C 148.943 192, 147.084 192.933, 145.635 194.073 M 244.594 193.896 C 240.672 198.229, 244.164 203.001, 249.309 200.340 C 252.305 198.791, 255 199.133, 255 201.062 C 255 201.681, 254.105 202.421, 253.011 202.707 C 251.917 202.993, 251.287 203.656, 251.611 204.179 C 251.942 204.715, 253.029 204.379, 254.099 203.410 C 258.208 199.692, 254.823 194.876, 249.984 197.554 C 248.618 198.310, 246.681 198.945, 245.680 198.965 C 242.790 199.021, 243.934 194.715, 247 193.995 C 248.989 193.528, 249.162 193.278, 247.844 192.771 C 246.864 192.395, 245.537 192.854, 244.594 193.896 M 146.691 196.028 C 143.676 198.400, 143.385 199.777, 145.337 202.446 C 146.615 204.193, 146.885 204.152, 151.380 201.518 C 155.806 198.924, 156.001 198.634, 154.678 196.630 C 152.754 193.717, 149.902 193.502, 146.691 196.028 M 237.950 204.094 C 237.149 205.589, 237.135 206.035, 237.903 205.560 C 239.396 204.637, 248.115 210.996, 247.276 212.397 C 246.913 213.004, 247.377 212.882, 248.308 212.128 C 250.256 210.548, 250.525 209, 248.853 209 C 248.222 209, 245.769 207.413, 243.402 205.474 C 239.139 201.980, 239.088 201.967, 237.950 204.094 M 157.125 210.055 C 154.168 211.104, 151.311 211.692, 150.775 211.361 C 150.239 211.030, 150.331 211.750, 150.980 212.962 C 151.976 214.823, 152.341 214.943, 153.329 213.737 C 154.564 212.231, 160.790 209.457, 161.452 210.119 C 161.665 210.332, 160.576 212.360, 159.032 214.625 C 157.216 217.288, 156.518 219.220, 157.057 220.093 C 157.516 220.835, 158.028 221.230, 158.196 220.971 C 158.363 220.712, 159.993 217.688, 161.818 214.250 C 165.505 207.303, 165.326 207.143, 157.125 210.055 M 231.275 212.315 C 230.299 213.431, 230.059 214.017, 230.742 213.618 C 232.005 212.879, 240 218.562, 240 220.200 C 240 220.675, 239.023 221.426, 237.829 221.868 C 236.298 222.434, 236.023 222.896, 236.896 223.435 C 237.576 223.856, 238.216 224.038, 238.317 223.839 C 238.417 223.640, 240.052 221.795, 241.948 219.737 C 244.738 216.711, 245.151 215.758, 244.114 214.748 C 243.083 213.743, 242.898 213.870, 243.166 215.396 C 243.763 218.786, 241.037 218.272, 237 214.235 C 233.074 210.310, 233.040 210.298, 231.275 212.315 M 226.267 217.133 C 225.416 217.984, 225.503 218.646, 226.612 219.755 C 227.923 221.065, 227.903 221.450, 226.444 223.062 C 225.118 224.527, 224.431 224.661, 222.961 223.743 C 221.953 223.114, 221.380 222.195, 221.685 221.700 C 221.991 221.205, 221.176 221.371, 219.873 222.068 C 218.127 223.002, 217.886 223.462, 218.956 223.819 C 219.755 224.085, 222.429 225.584, 224.900 227.151 C 230.320 230.589, 231.415 230.704, 230.585 227.750 C 230.237 226.512, 229.379 223.361, 228.679 220.748 C 227.726 217.195, 227.117 216.283, 226.267 217.133 M 172.367 217.785 C 172.702 218.327, 171.218 220.734, 169.069 223.135 C 165.170 227.492, 165.161 227.495, 164.246 225.079 C 163.658 223.525, 163.073 223.072, 162.614 223.815 C 162.194 224.495, 163.432 226.319, 165.616 228.236 C 169.564 231.703, 171.091 232.226, 171.724 230.329 C 171.972 229.584, 171.366 229.353, 170.057 229.695 C 167.104 230.468, 167.486 228.522, 171.194 223.909 C 173.039 221.613, 174.961 220.155, 175.746 220.456 C 177.757 221.228, 176.219 219.188, 173.824 217.906 C 172.665 217.286, 172.026 217.233, 172.367 217.785 M 226 224.965 C 226 225.495, 226.856 226.388, 227.902 226.947 C 229.520 227.813, 229.726 227.669, 229.285 225.983 C 228.767 224, 226 223.143, 226 224.965 M 180.571 226.571 C 178.535 228.608, 178.586 229.204, 181.065 232.355 C 182.201 233.799, 182.849 235.435, 182.506 235.990 C 181.423 237.742, 178.835 237.086, 178.268 234.915 C 177.866 233.379, 177.511 233.173, 176.918 234.132 C 175.744 236.033, 177.828 238, 181.015 238 C 184.560 238, 185.486 235.631, 183.353 232.021 C 181.604 229.059, 182.149 225.553, 184.251 226.246 C 184.938 226.472, 186.056 227.747, 186.735 229.079 C 187.950 231.459, 187.971 231.462, 187.985 229.285 C 187.999 227.235, 185.471 225, 183.137 225 C 182.590 225, 181.436 225.707, 180.571 226.571 M 212.223 226.557 C 207.959 229.543, 210.041 234, 215.700 234 C 218.394 234, 219 234.389, 219 236.117 C 219 237.828, 218.527 238.143, 216.530 237.761 C 215.172 237.501, 214.298 237.674, 214.589 238.144 C 216.112 240.608, 221 238.085, 221 234.835 C 221 233.048, 217.730 230.604, 216.707 231.626 C 215.484 232.849, 212 230.771, 212 228.819 C 212 227.131, 212.506 226.847, 214.896 227.198 C 216.992 227.506, 217.653 227.260, 217.289 226.312 C 216.622 224.574, 214.937 224.655, 212.223 226.557 M 197.500 235 C 197.840 235.550, 198.991 236, 200.059 236 C 201.127 236, 202 235.550, 202 235 C 202 234.450, 200.848 234, 199.441 234 C 197.990 234, 197.149 234.433, 197.500 235 M 77.805 260.250 C 78.042 263.688, 78.681 267.053, 79.224 267.730 C 79.788 268.432, 82.308 268.912, 85.106 268.849 L 90 268.739 90 261.369 C 90 255.593, 89.686 254, 88.548 254 C 87.465 254, 87.020 255.589, 86.798 260.250 C 86.514 266.198, 86.370 266.515, 83.820 266.810 C 81.349 267.095, 81.088 266.772, 80.471 262.658 C 80.104 260.205, 80.102 257.253, 80.469 256.099 C 80.984 254.475, 80.709 254, 79.254 254 C 77.567 254, 77.417 254.645, 77.805 260.250 M 102 261.427 C 102 265.809, 102.421 269, 103 269 C 103.550 269, 104 266.476, 104 263.391 L 104 257.783 108.674 263.343 C 111.245 266.400, 113.720 268.673, 114.174 268.392 C 115.369 267.654, 115.203 254, 114 254 C 113.450 254, 113 256.277, 113 259.061 L 113 264.122 108.856 259.311 C 102.736 252.205, 102 252.432, 102 261.427 M 127 261.500 C 127 267.500, 127.300 269, 128.500 269 C 129.700 269, 130 267.500, 130 261.500 C 130 255.500, 129.700 254, 128.500 254 C 127.300 254, 127 255.500, 127 261.500 M 141.992 254.750 C 141.980 256.001, 147.463 268.993, 148.005 268.997 C 148.429 268.999, 150.439 264.211, 153.567 255.750 C 153.923 254.787, 153.751 254, 153.185 254 C 152.618 254, 151.616 255.688, 150.957 257.750 C 149.143 263.427, 148.427 263.556, 146.379 258.575 C 145.345 256.063, 143.938 254.006, 143.250 254.004 C 142.563 254.002, 141.997 254.338, 141.992 254.750 M 165.500 261.500 L 165.500 269 170.250 269 C 172.863 269, 175 268.550, 175 268 C 175 267.450, 173.425 267, 171.500 267 C 168.433 267, 168 266.690, 168 264.500 C 168 262.378, 168.463 262, 171.059 262 C 172.844 262, 173.861 261.583, 173.500 261 C 173.160 260.450, 171.784 260, 170.441 260 C 168.667 260, 168 259.454, 168 258 C 168 256.375, 168.667 256, 171.559 256 C 173.677 256, 174.868 255.595, 174.500 255 C 174.160 254.450, 171.996 254, 169.691 254 L 165.500 254 165.500 261.500 M 187 261.500 C 187 267.500, 187.300 269, 188.500 269 C 189.561 269, 190.010 267.902, 190.034 265.250 L 190.067 261.500 193.131 265.250 C 194.815 267.313, 197.083 269, 198.170 269 C 199.944 269, 199.835 268.623, 197.097 265.302 C 194.357 261.977, 194.200 261.436, 195.549 259.946 C 198.354 256.846, 195.387 254.051, 189.250 254.014 C 187.115 254.001, 187 254.385, 187 261.500 M 210.970 256.056 C 210.026 257.819, 210.376 258.575, 213.435 261.377 C 215.396 263.173, 217 265.187, 217 265.852 C 217 267.708, 214.407 268.288, 211.962 266.980 C 210.193 266.033, 209.854 266.066, 210.211 267.153 C 210.790 268.913, 216.722 269.476, 218.565 267.946 C 220.906 266.003, 220.225 263.526, 216.391 260.037 C 213.616 257.512, 213.096 256.556, 214.141 255.899 C 214.888 255.430, 216.287 255.291, 217.250 255.590 C 218.213 255.890, 219 255.654, 219 255.067 C 219 254.480, 217.441 254, 215.535 254 C 213.063 254, 211.755 254.589, 210.970 256.056 M 232 261.500 C 232 267.500, 232.300 269, 233.500 269 C 234.700 269, 235 267.500, 235 261.500 C 235 255.500, 234.700 254, 233.500 254 C 232.300 254, 232 255.500, 232 261.500 M 248 261.370 L 248 269 251.865 269 C 263.552 269, 264.322 255.580, 252.711 254.271 L 248 253.740 248 261.370 M 274.326 261.487 C 272.625 265.619, 271.641 269, 272.138 269 C 272.636 269, 273.555 267.875, 274.182 266.500 C 275.005 264.694, 276.103 264, 278.141 264 C 280.316 264, 281.106 264.573, 281.589 266.500 C 281.977 268.046, 282.927 269, 284.078 269 C 285.763 269, 285.632 268.322, 282.683 261.821 C 280.892 257.873, 278.975 254.492, 278.423 254.308 C 277.871 254.124, 276.027 257.354, 274.326 261.487 M 297 261.370 L 297 269 300.566 269 C 304.228 269, 307.936 267.546, 309.235 265.600 C 310.678 263.438, 310.003 258.313, 308.041 256.537 C 306.963 255.561, 304.038 254.533, 301.541 254.252 L 297 253.740 297 261.370 M 190 258.500 C 190 261.193, 190.934 261.666, 192.722 259.878 C 194.117 258.483, 193.266 256, 191.393 256 C 190.574 256, 190 257.030, 190 258.500 M 251 261.500 C 251 266.679, 251.144 267, 253.465 267 C 257.752 267, 259.568 260.729, 256.171 257.655 C 252.523 254.354, 251 255.486, 251 261.500 M 300 261.500 C 300 266.572, 300.179 267, 302.300 267 C 305.355 267, 307 265.205, 307 261.871 C 307 258.688, 304.678 256, 301.929 256 C 300.258 256, 300 256.735, 300 261.500 M 277 258.859 C 277 259.397, 276.727 260.548, 276.393 261.418 C 275.963 262.538, 276.374 263, 277.799 263 C 279.326 263, 279.685 262.512, 279.286 260.984 C 278.723 258.831, 277 257.229, 277 258.859 M 148 281.662 C 139.178 283.247, 134.158 287.346, 133.334 293.638 C 132.621 299.080, 135.606 303.057, 146.520 311.202 C 151.459 314.889, 156.287 318.876, 157.250 320.063 C 159.184 322.449, 159.541 327.120, 158.008 329.986 C 156.593 332.628, 150.650 334.325, 145.508 333.553 C 141.233 332.912, 133 327.936, 133 325.994 C 133 325.447, 132.550 325, 132 325 C 130.695 325, 130.707 331.585, 132.017 334.032 C 133.350 336.522, 141.902 339.012, 148.932 338.956 C 161.751 338.855, 169.167 332.742, 169.167 322.275 C 169.167 316.526, 165.896 312.269, 156.450 305.725 C 146.818 299.052, 144 296.143, 144 292.870 C 144 286.789, 153.869 284.962, 162.351 289.472 C 166.727 291.798, 167 291.832, 167 290.037 C 167 285.355, 165.234 283.214, 160.812 282.532 C 153.397 281.390, 150.582 281.199, 148 281.662 M 38.414 284.636 C 38.957 286.052, 23.620 326.001, 19.367 334.250 L 17.949 337 21.724 336.989 L 25.500 336.977 28.592 328.739 L 31.683 320.500 42.339 320.216 L 52.995 319.932 55.564 325.716 C 56.976 328.897, 58.383 332.738, 58.691 334.250 C 59.229 336.898, 59.482 337, 65.517 337 L 71.784 337 70.135 333.750 C 69.228 331.962, 63.989 319.817, 58.493 306.760 L 48.500 283.021 43.143 283.010 C 38.591 283.002, 37.880 283.246, 38.414 284.636 M 76.965 284.934 C 77.574 286.073, 78 294.684, 78 305.869 C 78 316.833, 78.449 326.060, 79.061 327.685 C 82.869 337.785, 95.831 341.952, 106.554 336.523 C 110.714 334.417, 111.570 334.267, 112.273 335.523 C 112.858 336.569, 114.846 337, 119.085 337 C 124.693 337, 125.005 336.878, 124.035 335.066 C 122.645 332.468, 122.645 287.532, 124.035 284.934 C 125.014 283.106, 124.680 283, 117.928 283 C 111.487 283, 110.865 283.172, 111.589 284.750 C 112.917 287.645, 113.312 319.016, 112.072 323.155 C 110.450 328.568, 105.905 332, 100.358 332 C 94.754 332, 92.495 330.817, 90.277 326.720 C 88.799 323.992, 88.531 320.675, 88.517 305 C 88.507 294.825, 88.886 285.712, 89.357 284.750 C 90.132 283.167, 89.534 283, 83.072 283 C 76.320 283, 75.986 283.106, 76.965 284.934 M 174.098 286.149 C 173.494 287.881, 173 289.360, 173 289.435 C 173 289.509, 177.523 289.389, 183.051 289.167 L 193.103 288.763 192.801 312.883 L 192.500 337.002 198.500 337.002 L 204.500 337.002 204.199 313.001 L 203.899 289 211.262 289 C 218.139 289, 218.816 288.801, 221.500 286 L 224.374 283 199.785 283 L 175.196 283 174.098 286.149 M 229.965 284.934 C 231.355 287.532, 231.355 332.468, 229.965 335.066 C 228.987 336.893, 229.319 337, 235.940 337 L 242.950 337 241.975 334.435 C 240.696 331.070, 240.713 313.296, 241.996 312.503 C 244.361 311.041, 248.762 315.066, 255.093 324.479 C 258.784 329.967, 262.635 335.002, 263.652 335.668 C 265.318 336.759, 273.054 337.275, 284.750 337.073 C 288.079 337.016, 289 336.626, 289 335.275 C 289 334.326, 290.196 330.501, 291.658 326.775 L 294.316 320 305.002 320 L 315.688 320 319.094 328.493 L 322.500 336.986 328.187 336.993 L 333.875 337 331.091 330.750 C 329.560 327.313, 324.364 315.163, 319.545 303.750 L 310.783 283 305.642 283.003 C 300.527 283.006, 300.500 283.023, 300.411 286.253 C 300.270 291.388, 281.881 335.401, 279.701 335.820 C 277.513 336.240, 271.460 330.131, 264.500 320.478 C 261.750 316.663, 258.105 312.610, 256.399 311.471 L 253.299 309.401 257.641 307.605 C 270.613 302.239, 270.078 288.476, 256.743 284.516 C 253.489 283.550, 247.519 283, 240.283 283 C 229.368 283, 228.970 283.075, 229.965 284.934 M 339.965 284.934 C 341.506 287.813, 341.355 334.245, 339.800 335.800 C 338.867 336.733, 342.950 337, 358.175 337 L 377.750 337 378.382 333.840 C 378.730 332.102, 378.828 330.495, 378.601 330.267 C 378.373 330.040, 376.458 330.335, 374.344 330.922 C 372.230 331.509, 366.315 331.991, 361.200 331.994 L 351.901 332 352.200 307.499 L 352.500 282.998 345.715 282.999 C 339.317 283, 338.989 283.110, 339.965 284.934 M 241.667 288.667 C 240.611 289.723, 240.892 306.816, 241.977 307.486 C 243.520 308.439, 250.910 306.090, 253.027 303.973 C 257.557 299.443, 256.160 291.800, 250.360 289.377 C 246.841 287.907, 242.760 287.573, 241.667 288.667 M 41.130 297.111 C 40.621 298.425, 39.212 301.975, 38 305 C 33.477 316.288, 32.900 315, 42.476 315 L 50.903 315 46.854 305.250 C 44.627 299.887, 42.636 295.325, 42.430 295.111 C 42.224 294.898, 41.639 295.798, 41.130 297.111 M 300.678 304.247 C 298.655 309.358, 297 313.868, 297 314.269 C 297 314.671, 300.648 315, 305.107 315 C 311.713 315, 313.113 314.736, 312.667 313.575 C 310.197 307.138, 305.585 296.353, 305.035 295.728 C 304.661 295.303, 302.700 299.137, 300.678 304.247" stroke="none" fill="#f2f3f7" fill-rule="evenodd"/><path d="M -0 200.002 L -0 400.005 200.250 399.752 L 400.500 399.500 400.752 199.750 L 401.005 0 200.502 0 L 0 0 -0 200.002 M 0.490 200.500 C 0.490 310.500, 0.607 355.352, 0.750 300.170 C 0.893 244.989, 0.893 154.989, 0.750 100.170 C 0.607 45.352, 0.490 90.500, 0.490 200.500 M 195.500 65.500 C 195.500 71.788, 195.582 71.997, 198 71.921 C 199.375 71.878, 199.938 71.615, 199.250 71.338 C 198.563 71.060, 198 69.713, 198 68.343 C 198 65.028, 201.186 65.551, 202 69 C 202.323 70.369, 203.368 71.640, 204.321 71.823 C 205.927 72.133, 205.916 71.911, 204.177 68.815 C 202.814 66.388, 202.576 65.034, 203.309 63.872 C 205.093 61.044, 203.404 59, 199.281 59 L 195.500 59 195.500 65.500 M 198 62.500 C 198 64.333, 198.533 65, 200 65 C 201.467 65, 202 64.333, 202 62.500 C 202 60.667, 201.467 60, 200 60 C 198.533 60, 198 60.667, 198 62.500 M 182.287 63.296 C 179 65.018, 178.283 65.832, 179.022 67.001 C 179.843 68.299, 179.971 68.280, 179.985 66.857 C 179.993 65.953, 180.615 64.978, 181.368 64.689 C 182.987 64.068, 187.625 73.180, 186.564 74.897 C 185.594 76.466, 187.272 76.262, 189.559 74.532 C 190.716 73.657, 190.981 73.051, 190.214 73.032 C 188.687 72.994, 184.727 64.251, 185.598 62.841 C 185.930 62.304, 186.832 62.105, 187.601 62.400 C 188.371 62.696, 189 62.501, 189 61.969 C 189 60.469, 186.889 60.887, 182.287 63.296 M 216.872 65.667 C 216.118 66.583, 213.796 68.572, 211.713 70.085 C 209.377 71.782, 208.354 73.101, 209.043 73.527 C 209.657 73.906, 210.825 73.266, 211.639 72.105 C 212.825 70.412, 213.503 70.199, 215.059 71.032 C 217.202 72.178, 217.730 75.991, 215.750 76.015 C 214.917 76.026, 215 76.354, 216 77 C 218.287 78.478, 218.558 78.259, 218.782 74.750 C 218.897 72.963, 219.257 69.813, 219.583 67.750 C 220.218 63.733, 219.144 62.908, 216.872 65.667 M 215.617 67.870 C 214.146 69.496, 214.117 69.831, 215.406 70.325 C 216.342 70.685, 217.137 70.144, 217.540 68.874 C 218.434 66.058, 217.635 65.641, 215.617 67.870 M 171.589 69.901 C 168.720 73.072, 169.894 75.451, 174.508 75.817 C 179.355 76.201, 180.778 77.358, 179.016 79.480 C 178.195 80.470, 176.942 80.812, 175.609 80.410 C 173.914 79.900, 173.740 80.027, 174.723 81.060 C 176.656 83.093, 181 80.685, 181 77.580 C 181 74.563, 179.779 73.739, 175.109 73.604 C 172.614 73.532, 171.500 73.037, 171.500 72 C 171.500 71.082, 172.383 70.532, 173.777 70.582 C 175.030 70.628, 175.902 70.206, 175.715 69.645 C 175.103 67.808, 173.387 67.915, 171.589 69.901 M 229.386 70.748 C 230.271 72.262, 224.148 79.956, 222.038 79.982 C 221.193 79.992, 222.039 81.251, 224.038 82.959 C 227.672 86.066, 230 86.798, 230 84.833 C 230 84.192, 229.716 83.951, 229.369 84.298 C 228.417 85.249, 225 83.124, 225 81.581 C 225 80.840, 226.762 78.641, 228.916 76.695 L 232.831 73.157 230.744 71.329 C 229.596 70.323, 228.985 70.062, 229.386 70.748 M 164.041 75.450 C 162.979 76.730, 163.011 77, 164.226 77 C 165.035 77, 166.404 78.800, 167.268 81 C 168.132 83.200, 168.538 84.995, 168.170 84.988 C 167.801 84.981, 165.628 83.906, 163.341 82.597 C 160.443 80.940, 158.864 80.536, 158.134 81.266 C 157.404 81.996, 159.047 83.224, 163.550 85.316 C 167.105 86.968, 170.245 88.088, 170.527 87.806 C 170.810 87.524, 169.755 84.280, 168.184 80.597 C 165.732 74.849, 165.145 74.120, 164.041 75.450 M 240 81.241 C 240 82.925, 233.613 89, 231.843 89 C 231.084 89, 231.099 89.414, 231.893 90.371 C 232.827 91.496, 233.700 91.120, 236.765 88.275 C 238.819 86.368, 241.313 84.494, 242.307 84.111 C 244.012 83.453, 243.997 83.308, 242.057 81.552 C 240.332 79.990, 240 79.940, 240 81.241 M 152.004 89.374 C 152.007 89.993, 153.355 92.525, 155 95 C 156.645 97.475, 157.993 100.153, 157.996 100.950 C 157.999 102.062, 158.275 102.125, 159.176 101.224 C 160.078 100.322, 159.929 99.579, 158.538 98.042 C 157.053 96.401, 156.952 95.762, 157.984 94.519 C 159.583 92.592, 161.662 92.573, 162.726 94.474 C 163.432 95.737, 163.706 95.700, 164.631 94.219 C 165.582 92.697, 164.888 92.234, 158.856 90.369 C 154.367 88.981, 152.001 88.637, 152.004 89.374 M 244.946 90.034 C 244.049 90.589, 243.500 92.555, 243.500 95.214 C 243.500 98.833, 243.189 99.500, 241.500 99.500 C 239.975 99.500, 239.509 98.846, 239.539 96.750 C 239.580 93.946, 238.634 93.165, 237.473 95.044 C 237.118 95.618, 237.570 97.220, 238.476 98.604 C 239.686 100.451, 240.841 101.038, 242.813 100.810 C 245.285 100.525, 245.500 100.140, 245.500 96 C 245.500 92.167, 245.796 91.500, 247.500 91.500 C 248.940 91.500, 249.477 92.139, 249.417 93.783 C 249.364 95.251, 249.679 95.721, 250.300 95.100 C 252.558 92.842, 247.754 88.297, 244.946 90.034 M 155.057 93.107 C 155.907 94.694, 156.469 94.931, 157.334 94.066 C 158.200 93.200, 158.115 92.684, 156.992 91.974 C 154.566 90.440, 153.854 90.858, 155.057 93.107 M 148.046 107.914 C 147.432 109.062, 147.347 110, 147.858 110 C 148.886 110, 150.304 106.971, 149.605 106.271 C 149.361 106.028, 148.660 106.767, 148.046 107.914 M 250.047 106.500 C 250.023 107.986, 251.808 110.526, 252.435 109.898 C 252.735 109.599, 252.323 108.487, 251.521 107.427 C 250.720 106.367, 250.056 105.950, 250.047 106.500 M 193.953 109.703 C 193.233 110.857, 192.094 111.590, 191.423 111.332 C 190.752 111.074, 189.917 111.325, 189.569 111.888 C 189.221 112.452, 188.347 112.687, 187.628 112.411 C 186.909 112.135, 185.782 112.558, 185.123 113.351 C 184.465 114.145, 183.080 114.572, 182.045 114.302 C 180.728 113.957, 179.734 114.630, 178.729 116.548 C 177.816 118.290, 177.038 118.870, 176.588 118.143 C 175.433 116.273, 174.014 116.832, 172.974 119.567 C 172.226 121.535, 171.529 121.985, 169.988 121.496 C 168.341 120.973, 167.868 121.412, 167.364 123.929 C 167.026 125.618, 166.131 127, 165.375 127 C 164.619 127, 164 127.886, 164 128.969 C 164 130.263, 163.511 130.750, 162.573 130.390 C 161.736 130.068, 160.600 130.804, 159.823 132.171 C 159.095 133.452, 157.825 134.500, 157 134.500 C 156.039 134.500, 155.387 135.667, 155.187 137.750 C 155.014 139.537, 154.452 141, 153.937 141 C 152.685 141, 152.745 144.654, 154.035 147.066 C 154.850 148.588, 154.743 149, 153.535 149 C 151.825 149, 151.440 151.536, 153.004 152.502 C 153.556 152.843, 153.745 154.169, 153.424 155.448 C 153.002 157.127, 153.439 158.194, 154.993 159.283 C 156.408 160.273, 156.762 161.029, 156.025 161.485 C 154.176 162.628, 156.878 165, 160.029 165 C 162.388 165, 162.727 165.329, 162.249 167.156 C 161.731 169.135, 161.977 169.265, 165.224 168.738 C 167.171 168.423, 169.155 168.530, 169.632 168.978 C 170.987 170.247, 175.131 168.216, 175.711 165.997 C 176.362 163.507, 177.111 163.506, 181.984 165.992 C 191.942 171.072, 196.428 180.364, 193.794 190.459 L 192.500 195.418 186.079 196.713 C 178.257 198.292, 176.675 199.377, 183.520 198.469 C 187.242 197.976, 190.014 198.318, 194.474 199.824 L 200.445 201.840 206.707 199.784 C 211.949 198.064, 213.790 197.891, 218.013 198.726 C 224.900 200.088, 223.288 198.858, 215.685 196.950 C 208.294 195.096, 207.036 193.282, 207.015 184.446 C 206.995 176.166, 210.520 170.544, 218.279 166.481 C 223.585 163.703, 223.950 163.645, 225.757 165.280 C 227.704 167.042, 232 167.657, 232 166.173 C 232 165.718, 233.350 165.545, 235 165.787 C 237.276 166.121, 238 165.837, 238 164.613 C 238 163.487, 238.906 163, 241 163 C 244.390 163, 244.645 162.366, 242.492 159.292 C 241.108 157.316, 241.149 157.088, 242.992 156.502 C 245.072 155.842, 245.825 153, 243.921 153 C 243.241 153, 243.085 151.887, 243.500 150 C 243.884 148.250, 243.748 147, 243.173 147 C 242.631 147, 242.423 146.100, 242.710 145 C 243.119 143.437, 242.741 143, 240.981 143 C 238.886 143, 238.771 142.684, 239.345 138.500 C 239.684 136.025, 239.621 134, 239.204 134 C 238.788 134, 238.627 132.112, 238.847 129.804 L 239.247 125.608 236.676 127.293 C 233.680 129.256, 232.667 128.332, 232.565 123.546 C 232.514 121.152, 232.104 120.568, 230.650 120.817 C 229.539 121.007, 229.063 120.707, 229.459 120.067 C 229.860 119.417, 229.117 119, 227.559 119 C 226.152 119, 225 118.550, 225 118 C 225 117.450, 223.706 117, 222.125 117 C 219.735 117, 219.149 116.497, 218.654 114.020 C 217.999 110.744, 215.537 110.732, 214.500 114 C 213.743 116.386, 211 117.453, 211 115.362 C 211 114.372, 210.442 114, 209.500 114.362 C 208.636 114.693, 208 114.380, 208 113.624 C 208 111.720, 204.341 108.639, 203.567 109.891 C 203.220 110.453, 202.321 110.677, 201.569 110.388 C 200.817 110.100, 199.899 110.354, 199.529 110.953 C 199.099 111.649, 198.206 111.241, 197.059 109.825 L 195.263 107.606 193.953 109.703 M 136 115.678 C 136 116.439, 137.624 118.487, 139.608 120.229 C 142.826 123.054, 143.016 123.477, 141.358 124.129 C 140.336 124.531, 138.086 124.891, 136.357 124.930 C 134.463 124.972, 132.973 125.628, 132.607 126.582 C 131.750 128.815, 131.827 129.004, 133.355 128.417 C 134.100 128.132, 137.025 128.777, 139.855 129.853 C 144.146 131.483, 145 131.565, 145 130.345 C 145 129.540, 144.602 129.128, 144.115 129.429 C 143.629 129.729, 141.492 129.354, 139.365 128.594 L 135.500 127.213 140.750 126.478 C 143.637 126.073, 146 125.511, 146 125.227 C 146 124.944, 144.313 123.167, 142.250 121.279 C 140.119 119.328, 139.296 118.097, 140.343 118.427 C 141.356 118.747, 143.269 119.280, 144.593 119.613 C 145.917 119.945, 147.014 120.731, 147.030 121.358 C 147.047 121.986, 147.538 121.679, 148.122 120.675 C 148.706 119.671, 149.030 118.769, 148.842 118.671 C 148.654 118.572, 145.688 117.548, 142.250 116.393 C 137.274 114.723, 136 114.577, 136 115.678 M 257.500 119.127 C 251.587 123.923, 250.995 125, 254.277 125 C 255.621 125, 258.809 125.286, 261.360 125.636 C 264.732 126.098, 266 125.932, 266 125.029 C 266 124.307, 265.338 124.040, 264.421 124.392 C 263.552 124.725, 261.086 124.718, 258.940 124.374 L 255.039 123.751 258.639 120.890 C 260.618 119.317, 262.593 118.248, 263.026 118.516 C 263.459 118.784, 263.578 118.102, 263.290 117.001 C 263.002 115.901, 262.707 115.016, 262.633 115.036 C 262.560 115.055, 260.250 116.896, 257.500 119.127 M 191.370 124.477 C 191.049 125.315, 190.112 126, 189.288 126 C 188.190 126, 188.419 126.656, 190.145 128.456 C 191.648 130.023, 192.649 130.476, 192.912 129.706 C 193.139 129.043, 193.864 128.050, 194.522 127.500 C 195.430 126.742, 195.265 126.071, 193.838 124.727 C 192.201 123.187, 191.878 123.154, 191.370 124.477 M 215.868 125.702 C 214.361 127.118, 214.380 127.380, 216.118 129.118 C 217.960 130.960, 218.040 130.960, 219.880 129.120 C 221.721 127.279, 221.720 127.205, 219.869 125.620 C 217.676 123.742, 217.960 123.737, 215.868 125.702 M 261.500 132.158 C 258.750 132.599, 255.887 132.739, 255.139 132.469 C 254.223 132.138, 253.977 132.499, 254.389 133.570 C 254.725 134.447, 255.007 135.464, 255.015 135.832 C 255.024 136.199, 255.375 135.959, 255.795 135.297 C 256.216 134.635, 258.571 133.820, 261.030 133.486 L 265.500 132.878 260.750 137.243 C 258.137 139.644, 256 141.916, 256 142.291 C 256 142.667, 258.921 142.867, 262.491 142.737 C 268.079 142.533, 268.983 142.240, 268.991 140.628 C 268.997 139.267, 268.658 139.026, 267.750 139.747 C 267.063 140.293, 264.700 141.056, 262.500 141.444 L 258.500 142.148 263.346 137.192 C 266.011 134.467, 267.811 132.038, 267.346 131.796 C 266.881 131.553, 264.250 131.716, 261.500 132.158 M 130.732 135.917 C 130.407 137.162, 130.587 137.755, 131.180 137.389 C 132.671 136.467, 140.248 140.152, 139.140 141.260 C 138.630 141.770, 136.391 142.257, 134.164 142.343 C 131.165 142.459, 129.989 142.975, 129.630 144.329 C 129.330 145.462, 129.594 145.986, 130.323 145.706 C 130.970 145.458, 134.088 144.676, 137.250 143.968 C 140.412 143.261, 143 142.311, 143 141.858 C 143 141.405, 140.637 139.842, 137.750 138.386 C 134.863 136.929, 132.225 135.309, 131.889 134.784 C 131.553 134.260, 131.032 134.770, 130.732 135.917 M 212.750 144.250 C 211.083 145.917, 211.083 146.083, 212.750 147.750 C 214.417 149.417, 214.583 149.417, 216.250 147.750 C 217.917 146.083, 217.917 145.917, 216.250 144.250 C 214.583 142.583, 214.417 142.583, 212.750 144.250 M 256.013 149 C 255.996 151.446, 256.136 151.493, 262.498 151.165 C 266.586 150.954, 269.001 150.397, 269.001 149.665 C 269.002 148.875, 267.191 148.613, 263.372 148.850 C 259.421 149.096, 257.486 148.797, 256.886 147.850 C 256.279 146.892, 256.026 147.226, 256.013 149 M 174.911 150.979 C 173.457 152.533, 173.463 152.853, 174.974 154.720 L 176.627 156.761 178.919 154.381 C 180.207 153.042, 180.665 152, 179.965 152 C 179.281 152, 178.221 151.388, 177.610 150.640 C 176.685 149.507, 176.234 149.564, 174.911 150.979 M 138.683 152.607 C 136.626 153.722, 135.514 153.842, 134.560 153.050 C 132.042 150.960, 130 152.940, 130 157.470 L 130 161.727 135.109 160.798 C 137.919 160.288, 140.844 160.110, 141.609 160.403 C 142.479 160.737, 143 160.264, 143 159.142 C 143 157.716, 142.383 157.437, 140 157.787 C 137.891 158.096, 137 157.813, 137 156.833 C 137 156.066, 138.350 154.929, 140 154.306 C 141.650 153.683, 143 152.685, 143 152.087 C 143 150.654, 142.081 150.765, 138.683 152.607 M 131 156.930 C 131 158.487, 131.638 159, 133.573 159 C 136.856 159, 136.564 155.655, 133.240 155.180 C 131.539 154.938, 131 155.359, 131 156.930 M 262.250 157.786 C 258.813 158.645, 256 159.712, 256 160.157 C 256 160.602, 258.363 162.158, 261.250 163.614 C 264.137 165.071, 266.831 166.766, 267.235 167.381 C 267.719 168.119, 267.973 167.989, 267.981 167 C 267.987 166.154, 266 164.680, 263.425 163.621 C 258.120 161.440, 258.691 159.893, 264.888 159.657 C 268.065 159.535, 268.990 159.106, 268.994 157.750 C 268.997 156.787, 268.887 156.050, 268.750 156.112 C 268.613 156.174, 265.688 156.927, 262.250 157.786 M 188 161.879 C 188 162.362, 189.238 163.280, 190.750 163.919 C 192.262 164.557, 195.039 166.351, 196.920 167.903 L 200.341 170.727 204.747 167.363 C 207.170 165.513, 209.655 164, 210.268 164 C 210.881 164, 210.509 163.339, 209.441 162.532 C 208.374 161.724, 206.037 161.049, 204.250 161.032 C 201.689 161.007, 201 161.411, 201 162.941 C 201 165.884, 199.314 166.314, 196.970 163.970 C 195.305 162.305, 194.569 162.112, 193.445 163.046 C 192.325 163.975, 191.892 163.883, 191.405 162.613 C 190.761 160.935, 188 160.340, 188 161.879 M 136 167.694 C 131.826 169.186, 130.747 174.747, 134 178 C 136.571 180.571, 140.039 180.544, 143.365 177.927 C 149.539 173.071, 143.691 164.945, 136 167.694 M 253.484 172.097 C 252.648 177.043, 252.665 177.388, 253.756 177.752 C 254.254 177.918, 254.456 176.656, 254.206 174.948 C 253.778 172.033, 253.926 171.863, 256.625 172.172 C 259.507 172.501, 259.732 172.999, 258.467 176.250 C 258.002 177.446, 258.265 178, 259.299 178 C 260.290 178, 260.642 177.348, 260.319 176.113 C 259.740 173.896, 261.162 172.741, 263.410 173.604 C 265.532 174.418, 265.435 177.647, 263.250 178.920 C 261.632 179.862, 261.628 179.941, 263.203 179.970 C 264.330 179.990, 265.258 178.732, 265.947 176.250 C 266.520 174.188, 266.989 172.275, 266.990 172 C 266.991 171.725, 265.416 171.419, 263.490 171.321 C 261.565 171.222, 258.673 170.485, 257.064 169.682 L 254.138 168.222 253.484 172.097 M 136 170.290 C 132.739 171.934, 132.201 175.502, 134.988 176.994 C 137.808 178.503, 143.676 176.595, 144.535 173.890 C 145.868 169.690, 141.143 167.697, 136 170.290 M 250.682 180.652 C 249.274 182.060, 250.079 183.872, 252.250 184.180 C 255.991 184.712, 255.018 187.500, 251.092 187.500 C 249.218 187.500, 247.518 187.985, 247.316 188.579 C 247.090 189.239, 248.489 189.627, 250.923 189.579 C 253.909 189.520, 255.011 189.935, 255.355 191.250 C 256.081 194.025, 258.852 193.290, 261.011 189.750 C 262.867 186.706, 263.728 183.939, 262.408 185.258 C 261.697 185.970, 252.788 182.275, 251.952 180.922 C 251.628 180.398, 251.057 180.277, 250.682 180.652 M 147.871 182.637 C 147.394 183.748, 140.383 187, 138.466 187 C 136.811 187, 136.471 189.555, 138 190.500 C 138.550 190.840, 139 190.703, 139 190.195 C 139 189.241, 147.919 185.404, 149.250 185.785 C 150.244 186.070, 150.177 184.827, 149.106 183.137 C 148.631 182.387, 148.075 182.162, 147.871 182.637 M 255.697 187.348 C 255.096 188.914, 256.750 191, 258.593 191 C 259.653 191, 261.468 188.072, 260.774 187.481 C 259.333 186.256, 256.148 186.173, 255.697 187.348 M 145.635 194.073 C 144.186 195.212, 143 197.030, 143 198.112 C 143 200.898, 147.304 208.909, 147.736 206.927 C 147.924 206.062, 150.304 204.262, 153.024 202.927 C 155.744 201.592, 157.976 200.195, 157.984 199.821 C 158.016 198.464, 151.224 192, 149.767 192 C 148.943 192, 147.084 192.933, 145.635 194.073 M 244.594 193.896 C 240.672 198.229, 244.164 203.001, 249.309 200.340 C 252.305 198.791, 255 199.133, 255 201.062 C 255 201.681, 254.105 202.421, 253.011 202.707 C 251.917 202.993, 251.287 203.656, 251.611 204.179 C 251.942 204.715, 253.029 204.379, 254.099 203.410 C 258.208 199.692, 254.823 194.876, 249.984 197.554 C 248.618 198.310, 246.681 198.945, 245.680 198.965 C 242.790 199.021, 243.934 194.715, 247 193.995 C 248.989 193.528, 249.162 193.278, 247.844 192.771 C 246.864 192.395, 245.537 192.854, 244.594 193.896 M 146.691 196.028 C 143.676 198.400, 143.385 199.777, 145.337 202.446 C 146.615 204.193, 146.885 204.152, 151.380 201.518 C 155.806 198.924, 156.001 198.634, 154.678 196.630 C 152.754 193.717, 149.902 193.502, 146.691 196.028 M 237.950 204.094 C 237.149 205.589, 237.135 206.035, 237.903 205.560 C 239.396 204.637, 248.115 210.996, 247.276 212.397 C 246.913 213.004, 247.377 212.882, 248.308 212.128 C 250.256 210.548, 250.525 209, 248.853 209 C 248.222 209, 245.769 207.413, 243.402 205.474 C 239.139 201.980, 239.088 201.967, 237.950 204.094 M 157.125 210.055 C 154.168 211.104, 151.311 211.692, 150.775 211.361 C 150.239 211.030, 150.331 211.750, 150.980 212.962 C 151.976 214.823, 152.341 214.943, 153.329 213.737 C 154.564 212.231, 160.790 209.457, 161.452 210.119 C 161.665 210.332, 160.576 212.360, 159.032 214.625 C 157.216 217.288, 156.518 219.220, 157.057 220.093 C 157.516 220.835, 158.028 221.230, 158.196 220.971 C 158.363 220.712, 159.993 217.688, 161.818 214.250 C 165.505 207.303, 165.326 207.143, 157.125 210.055 M 231.275 212.315 C 230.299 213.431, 230.059 214.017, 230.742 213.618 C 232.005 212.879, 240 218.562, 240 220.200 C 240 220.675, 239.023 221.426, 237.829 221.868 C 236.298 222.434, 236.023 222.896, 236.896 223.435 C 237.576 223.856, 238.216 224.038, 238.317 223.839 C 238.417 223.640, 240.052 221.795, 241.948 219.737 C 244.738 216.711, 245.151 215.758, 244.114 214.748 C 243.083 213.743, 242.898 213.870, 243.166 215.396 C 243.763 218.786, 241.037 218.272, 237 214.235 C 233.074 210.310, 233.040 210.298, 231.275 212.315 M 226.267 217.133 C 225.416 217.984, 225.503 218.646, 226.612 219.755 C 227.923 221.065, 227.903 221.450, 226.444 223.062 C 225.118 224.527, 224.431 224.661, 222.961 223.743 C 221.953 223.114, 221.380 222.195, 221.685 221.700 C 221.991 221.205, 221.176 221.371, 219.873 222.068 C 218.127 223.002, 217.886 223.462, 218.956 223.819 C 219.755 224.085, 222.429 225.584, 224.900 227.151 C 230.320 230.589, 231.415 230.704, 230.585 227.750 C 230.237 226.512, 229.379 223.361, 228.679 220.748 C 227.726 217.195, 227.117 216.283, 226.267 217.133 M 172.367 217.785 C 172.702 218.327, 171.218 220.734, 169.069 223.135 C 165.170 227.492, 165.161 227.495, 164.246 225.079 C 163.658 223.525, 163.073 223.072, 162.614 223.815 C 162.194 224.495, 163.432 226.319, 165.616 228.236 C 169.564 231.703, 171.091 232.226, 171.724 230.329 C 171.972 229.584, 171.366 229.353, 170.057 229.695 C 167.104 230.468, 167.486 228.522, 171.194 223.909 C 173.039 221.613, 174.961 220.155, 175.746 220.456 C 177.757 221.228, 176.219 219.188, 173.824 217.906 C 172.665 217.286, 172.026 217.233, 172.367 217.785 M 226 224.965 C 226 225.495, 226.856 226.388, 227.902 226.947 C 229.520 227.813, 229.726 227.669, 229.285 225.983 C 228.767 224, 226 223.143, 226 224.965 M 180.571 226.571 C 178.535 228.608, 178.586 229.204, 181.065 232.355 C 182.201 233.799, 182.849 235.435, 182.506 235.990 C 181.423 237.742, 178.835 237.086, 178.268 234.915 C 177.866 233.379, 177.511 233.173, 176.918 234.132 C 175.744 236.033, 177.828 238, 181.015 238 C 184.560 238, 185.486 235.631, 183.353 232.021 C 181.604 229.059, 182.149 225.553, 184.251 226.246 C 184.938 226.472, 186.056 227.747, 186.735 229.079 C 187.950 231.459, 187.971 231.462, 187.985 229.285 C 187.999 227.235, 185.471 225, 183.137 225 C 182.590 225, 181.436 225.707, 180.571 226.571 M 212.223 226.557 C 207.959 229.543, 210.041 234, 215.700 234 C 218.394 234, 219 234.389, 219 236.117 C 219 237.828, 218.527 238.143, 216.530 237.761 C 215.172 237.501, 214.298 237.674, 214.589 238.144 C 216.112 240.608, 221 238.085, 221 234.835 C 221 233.048, 217.730 230.604, 216.707 231.626 C 215.484 232.849, 212 230.771, 212 228.819 C 212 227.131, 212.506 226.847, 214.896 227.198 C 216.992 227.506, 217.653 227.260, 217.289 226.312 C 216.622 224.574, 214.937 224.655, 212.223 226.557 M 197.500 235 C 197.840 235.550, 198.991 236, 200.059 236 C 201.127 236, 202 235.550, 202 235 C 202 234.450, 200.848 234, 199.441 234 C 197.990 234, 197.149 234.433, 197.500 235 M 77.805 260.250 C 78.042 263.688, 78.681 267.053, 79.224 267.730 C 79.788 268.432, 82.308 268.912, 85.106 268.849 L 90 268.739 90 261.369 C 90 255.593, 89.686 254, 88.548 254 C 87.465 254, 87.020 255.589, 86.798 260.250 C 86.514 266.198, 86.370 266.515, 83.820 266.810 C 81.349 267.095, 81.088 266.772, 80.471 262.658 C 80.104 260.205, 80.102 257.253, 80.469 256.099 C 80.984 254.475, 80.709 254, 79.254 254 C 77.567 254, 77.417 254.645, 77.805 260.250 M 102 261.427 C 102 265.809, 102.421 269, 103 269 C 103.550 269, 104 266.476, 104 263.391 L 104 257.783 108.674 263.343 C 111.245 266.400, 113.720 268.673, 114.174 268.392 C 115.369 267.654, 115.203 254, 114 254 C 113.450 254, 113 256.277, 113 259.061 L 113 264.122 108.856 259.311 C 102.736 252.205, 102 252.432, 102 261.427 M 127 261.500 C 127 267.500, 127.300 269, 128.500 269 C 129.700 269, 130 267.500, 130 261.500 C 130 255.500, 129.700 254, 128.500 254 C 127.300 254, 127 255.500, 127 261.500 M 141.992 254.750 C 141.980 256.001, 147.463 268.993, 148.005 268.997 C 148.429 268.999, 150.439 264.211, 153.567 255.750 C 153.923 254.787, 153.751 254, 153.185 254 C 152.618 254, 151.616 255.688, 150.957 257.750 C 149.143 263.427, 148.427 263.556, 146.379 258.575 C 145.345 256.063, 143.938 254.006, 143.250 254.004 C 142.563 254.002, 141.997 254.338, 141.992 254.750 M 165.500 261.500 L 165.500 269 170.250 269 C 172.863 269, 175 268.550, 175 268 C 175 267.450, 173.425 267, 171.500 267 C 168.433 267, 168 266.690, 168 264.500 C 168 262.378, 168.463 262, 171.059 262 C 172.844 262, 173.861 261.583, 173.500 261 C 173.160 260.450, 171.784 260, 170.441 260 C 168.667 260, 168 259.454, 168 258 C 168 256.375, 168.667 256, 171.559 256 C 173.677 256, 174.868 255.595, 174.500 255 C 174.160 254.450, 171.996 254, 169.691 254 L 165.500 254 165.500 261.500 M 187 261.500 C 187 267.500, 187.300 269, 188.500 269 C 189.561 269, 190.010 267.902, 190.034 265.250 L 190.067 261.500 193.131 265.250 C 194.815 267.313, 197.083 269, 198.170 269 C 199.944 269, 199.835 268.623, 197.097 265.302 C 194.357 261.977, 194.200 261.436, 195.549 259.946 C 198.354 256.846, 195.387 254.051, 189.250 254.014 C 187.115 254.001, 187 254.385, 187 261.500 M 210.970 256.056 C 210.026 257.819, 210.376 258.575, 213.435 261.377 C 215.396 263.173, 217 265.187, 217 265.852 C 217 267.708, 214.407 268.288, 211.962 266.980 C 210.193 266.033, 209.854 266.066, 210.211 267.153 C 210.790 268.913, 216.722 269.476, 218.565 267.946 C 220.906 266.003, 220.225 263.526, 216.391 260.037 C 213.616 257.512, 213.096 256.556, 214.141 255.899 C 214.888 255.430, 216.287 255.291, 217.250 255.590 C 218.213 255.890, 219 255.654, 219 255.067 C 219 254.480, 217.441 254, 215.535 254 C 213.063 254, 211.755 254.589, 210.970 256.056 M 232 261.500 C 232 267.500, 232.300 269, 233.500 269 C 234.700 269, 235 267.500, 235 261.500 C 235 255.500, 234.700 254, 233.500 254 C 232.300 254, 232 255.500, 232 261.500 M 248 261.370 L 248 269 251.865 269 C 263.552 269, 264.322 255.580, 252.711 254.271 L 248 253.740 248 261.370 M 274.326 261.487 C 272.625 265.619, 271.641 269, 272.138 269 C 272.636 269, 273.555 267.875, 274.182 266.500 C 275.005 264.694, 276.103 264, 278.141 264 C 280.316 264, 281.106 264.573, 281.589 266.500 C 281.977 268.046, 282.927 269, 284.078 269 C 285.763 269, 285.632 268.322, 282.683 261.821 C 280.892 257.873, 278.975 254.492, 278.423 254.308 C 277.871 254.124, 276.027 257.354, 274.326 261.487 M 297 261.370 L 297 269 300.566 269 C 304.228 269, 307.936 267.546, 309.235 265.600 C 310.678 263.438, 310.003 258.313, 308.041 256.537 C 306.963 255.561, 304.038 254.533, 301.541 254.252 L 297 253.740 297 261.370 M 190 258.500 C 190 261.193, 190.934 261.666, 192.722 259.878 C 194.117 258.483, 193.266 256, 191.393 256 C 190.574 256, 190 257.030, 190 258.500 M 251 261.500 C 251 266.679, 251.144 267, 253.465 267 C 257.752 267, 259.568 260.729, 256.171 257.655 C 252.523 254.354, 251 255.486, 251 261.500 M 300 261.500 C 300 266.572, 300.179 267, 302.300 267 C 305.355 267, 307 265.205, 307 261.871 C 307 258.688, 304.678 256, 301.929 256 C 300.258 256, 300 256.735, 300 261.500 M 277 258.859 C 277 259.397, 276.727 260.548, 276.393 261.418 C 275.963 262.538, 276.374 263, 277.799 263 C 279.326 263, 279.685 262.512, 279.286 260.984 C 278.723 258.831, 277 257.229, 277 258.859 M 148 281.662 C 139.178 283.247, 134.158 287.346, 133.334 293.638 C 132.621 299.080, 135.606 303.057, 146.520 311.202 C 151.459 314.889, 156.287 318.876, 157.250 320.063 C 159.184 322.449, 159.541 327.120, 158.008 329.986 C 156.593 332.628, 150.650 334.325, 145.508 333.553 C 141.233 332.912, 133 327.936, 133 325.994 C 133 325.447, 132.550 325, 132 325 C 130.695 325, 130.707 331.585, 132.017 334.032 C 133.350 336.522, 141.902 339.012, 148.932 338.956 C 161.751 338.855, 169.167 332.742, 169.167 322.275 C 169.167 316.526, 165.896 312.269, 156.450 305.725 C 146.818 299.052, 144 296.143, 144 292.870 C 144 286.789, 153.869 284.962, 162.351 289.472 C 166.727 291.798, 167 291.832, 167 290.037 C 167 285.355, 165.234 283.214, 160.812 282.532 C 153.397 281.390, 150.582 281.199, 148 281.662 M 38.414 284.636 C 38.957 286.052, 23.620 326.001, 19.367 334.250 L 17.949 337 21.724 336.989 L 25.500 336.977 28.592 328.739 L 31.683 320.500 42.339 320.216 L 52.995 319.932 55.564 325.716 C 56.976 328.897, 58.383 332.738, 58.691 334.250 C 59.229 336.898, 59.482 337, 65.517 337 L 71.784 337 70.135 333.750 C 69.228 331.962, 63.989 319.817, 58.493 306.760 L 48.500 283.021 43.143 283.010 C 38.591 283.002, 37.880 283.246, 38.414 284.636 M 76.965 284.934 C 77.574 286.073, 78 294.684, 78 305.869 C 78 316.833, 78.449 326.060, 79.061 327.685 C 82.869 337.785, 95.831 341.952, 106.554 336.523 C 110.714 334.417, 111.570 334.267, 112.273 335.523 C 112.858 336.569, 114.846 337, 119.085 337 C 124.693 337, 125.005 336.878, 124.035 335.066 C 122.645 332.468, 122.645 287.532, 124.035 284.934 C 125.014 283.106, 124.680 283, 117.928 283 C 111.487 283, 110.865 283.172, 111.589 284.750 C 112.917 287.645, 113.312 319.016, 112.072 323.155 C 110.450 328.568, 105.905 332, 100.358 332 C 94.754 332, 92.495 330.817, 90.277 326.720 C 88.799 323.992, 88.531 320.675, 88.517 305 C 88.507 294.825, 88.886 285.712, 89.357 284.750 C 90.132 283.167, 89.534 283, 83.072 283 C 76.320 283, 75.986 283.106, 76.965 284.934 M 174.098 286.149 C 173.494 287.881, 173 289.360, 173 289.435 C 173 289.509, 177.523 289.389, 183.051 289.167 L 193.103 288.763 192.801 312.883 L 192.500 337.002 198.500 337.002 L 204.500 337.002 204.199 313.001 L 203.899 289 211.262 289 C 218.139 289, 218.816 288.801, 221.500 286 L 224.374 283 199.785 283 L 175.196 283 174.098 286.149 M 229.965 284.934 C 231.355 287.532, 231.355 332.468, 229.965 335.066 C 228.987 336.893, 229.319 337, 235.940 337 L 242.950 337 241.975 334.435 C 240.696 331.070, 240.713 313.296, 241.996 312.503 C 244.361 311.041, 248.762 315.066, 255.093 324.479 C 258.784 329.967, 262.635 335.002, 263.652 335.668 C 265.318 336.759, 273.054 337.275, 284.750 337.073 C 288.079 337.016, 289 336.626, 289 335.275 C 289 334.326, 290.196 330.501, 291.658 326.775 L 294.316 320 305.002 320 L 315.688 320 319.094 328.493 L 322.500 336.986 328.187 336.993 L 333.875 337 331.091 330.750 C 329.560 327.313, 324.364 315.163, 319.545 303.750 L 310.783 283 305.642 283.003 C 300.527 283.006, 300.500 283.023, 300.411 286.253 C 300.270 291.388, 281.881 335.401, 279.701 335.820 C 277.513 336.240, 271.460 330.131, 264.500 320.478 C 261.750 316.663, 258.105 312.610, 256.399 311.471 L 253.299 309.401 257.641 307.605 C 270.613 302.239, 270.078 288.476, 256.743 284.516 C 253.489 283.550, 247.519 283, 240.283 283 C 229.368 283, 228.970 283.075, 229.965 284.934 M 339.965 284.934 C 341.506 287.813, 341.355 334.245, 339.800 335.800 C 338.867 336.733, 342.950 337, 358.175 337 L 377.750 337 378.382 333.840 C 378.730 332.102, 378.828 330.495, 378.601 330.267 C 378.373 330.040, 376.458 330.335, 374.344 330.922 C 372.230 331.509, 366.315 331.991, 361.200 331.994 L 351.901 332 352.200 307.499 L 352.500 282.998 345.715 282.999 C 339.317 283, 338.989 283.110, 339.965 284.934 M 241.667 288.667 C 240.611 289.723, 240.892 306.816, 241.977 307.486 C 243.520 308.439, 250.910 306.090, 253.027 303.973 C 257.557 299.443, 256.160 291.800, 250.360 289.377 C 246.841 287.907, 242.760 287.573, 241.667 288.667 M 41.130 297.111 C 40.621 298.425, 39.212 301.975, 38 305 C 33.477 316.288, 32.900 315, 42.476 315 L 50.903 315 46.854 305.250 C 44.627 299.887, 42.636 295.325, 42.430 295.111 C 42.224 294.898, 41.639 295.798, 41.130 297.111 M 300.678 304.247 C 298.655 309.358, 297 313.868, 297 314.269 C 297 314.671, 300.648 315, 305.107 315 C 311.713 315, 313.113 314.736, 312.667 313.575 C 310.197 307.138, 305.585 296.353, 305.035 295.728 C 304.661 295.303, 302.700 299.137, 300.678 304.247" stroke="none" fill="#143494" fill-rule="evenodd"/></svg>